<?xml version="1.0" standalone="no"?>
<!DOCTYPE svg PUBLIC "-//W3C//DTD SVG 1.1//EN" "http://www.w3.org/Graphics/SVG/1.1/DTD/svg11.dtd" >
<svg>
<metadata>
Created by FontForge 20090914 at Fri Feb 24 04:44:39 2012
 By root
Copyright (c) 2009 by Soolid. All rights reserved.
</metadata>
<defs>
<font id="Soolidium" horiz-adv-x="833" >
  <font-face 
    font-family="Soolidium"
    font-weight="700"
    font-stretch="normal"
    units-per-em="1000"
    panose-1="0 0 0 0 0 0 0 0 0 0"
    ascent="750"
    descent="-250"
    x-height="699"
    cap-height="968"
    bbox="9.91667 -268 1300 983"
    underline-thickness="50"
    underline-position="-50"
    unicode-range="U+0020-U+2212"
  />
<missing-glyph horiz-adv-x="500" 
 />
    <glyph glyph-name=".notdef" horiz-adv-x="500" 
 />
    <glyph glyph-name=".null" horiz-adv-x="0" 
 />
    <glyph glyph-name="nonmarkingreturn" horiz-adv-x="500" 
 />
    <glyph glyph-name="space" unicode=" " horiz-adv-x="500" 
 />
    <glyph glyph-name="space" unicode="&#xa0;" horiz-adv-x="500" 
 />
    <glyph glyph-name="e" unicode="e" horiz-adv-x="757" 
d="M405 700q81 0 138 -15t94 -42.5t57.5 -65.5t30 -84.5t10.5 -99t0 -108.5h-516q4 -30 15.5 -55t33 -43t55 -27.5t83.5 -9.5q43 0 72 4t51 11.5t40 18t39 24.5q12 9 23.5 8t19.5 -12l58 -75q13 -16 16 -23.5t-17 -21.5q-2 -2 -4 -3q-35 -24 -65.5 -39.5t-64.5 -25
t-74 -13.5t-94 -4q-120 0 -195.5 28t-117.5 76t-57.5 111.5t-15.5 135.5q0 70 15.5 133.5t58 111.5t117.5 76.5t194 28.5zM548 418q-2 29 -8 53.5t-21.5 42t-44 27.5t-76.5 10t-80 -9.5t-53 -26.5t-31.5 -41.5t-14.5 -55.5h329z" />
    <glyph glyph-name="f" unicode="f" horiz-adv-x="552" 
d="M464 810q-30 0 -49.5 -10.5t-30.5 -27.5t-15 -38.5t-4 -42.5v-8h132q14 0 23.5 -8.5t9.5 -20.5v-95q0 -13 -9.5 -21.5t-23.5 -8.5h-6h-126v-367v-3v-129q0 -12 -10 -21t-24 -9h-143q-14 0 -23.5 9t-9.5 21v4v495h-101q-14 0 -24 8.5t-10 21.5v95q0 12 10 20.5t24 8.5h101
v7q0 52 13.5 101.5t45 88.5t84 63t131.5 26q18 0 27.5 0.5t16 0.5h11.5h14q14 0 24 -8t10 -21v-101q0 -12 -10 -21t-24 -9h-34v0z" />
    <glyph glyph-name="g" unicode="g" horiz-adv-x="759" 
d="M389 164q105 0 172.5 -10.5t107 -33.5t55 -60t15.5 -91q0 -61 -22.5 -102.5t-68 -67t-114.5 -36.5t-163 -11q-97 0 -164 8t-108.5 28.5t-60 54t-18.5 84.5q0 58 31.5 95.5t100.5 53.5q-27 19 -37 42.5t-10 50.5q0 29 11.5 58.5t28.5 48.5q-45 26 -66 68t-21 101
q0 112 74 171t241 59h18t19 -1l87 17q4 2 7.5 3t8.5 1l165 51q33 10 33 -13v-112q0 -12 -9.5 -21t-23.5 -9h-14h-49q35 -20 55 -53t20 -93q0 -111 -75.5 -162t-241.5 -51q-24 0 -45.5 1.5t-43.5 1.5q-8 -11 -8.5 -19.5t-0.5 -14.5q0 -12 5 -19.5t18 -11t35 -5t56 -1.5z
M373 530q-76 0 -104 -21t-28 -66q0 -21 6.5 -37.5t21.5 -27.5t40.5 -16.5t63.5 -5.5q77 0 105 22t28 65q0 44 -29.5 65.5t-103.5 21.5zM378 -119q51 0 84 4.5t52 13.5t26.5 23t7.5 33q0 18 -8 32t-27.5 23t-52.5 13.5t-82 4.5q-57 0 -90.5 -6.5t-51 -17.5t-23 -25.5
t-5.5 -31.5q0 -18 7.5 -31t26.5 -20.5t52 -11t84 -3.5z" />
    <glyph glyph-name="h" unicode="h" horiz-adv-x="753" 
d="M733 158v-129q0 -12 -10 -21t-24 -9h-128q-14 0 -23.5 9t-9.5 21v9v332q0 32 -8.5 59.5t-28 47t-50.5 30.5t-76 11q-51 0 -81.5 -18t-47 -44t-22.5 -54.5t-8 -50.5v-188q0 -1 0.5 -2t0.5 -2v-129q0 -12 -11 -21t-25 -9h-127q-14 0 -24 9t-10 21v11v118v652v125v4
q0 12 9.5 21t23.5 9h129q14 0 24 -6t10 -24v-129q0 -2 -0.5 -3t-0.5 -2v-150q22 24 75.5 35.5t154.5 11.5q80 0 135 -21.5t88.5 -60t48.5 -93t15 -120.5v-249z" />
    <glyph glyph-name="i" unicode="i" horiz-adv-x="268" 
d="M248 31q0 -12 -9.5 -21t-23.5 -9h-141q-14 0 -24 9t-10 21v640q0 12 10 21t24 9h141q14 0 23.5 -9t9.5 -21v-640zM248 809q0 -13 -10 -21.5t-24 -8.5h-140q-14 0 -24 8.5t-10 21.5v129q0 12 10 21t24 9h140q14 0 24 -9t10 -21v-129z" />
    <glyph glyph-name="j" unicode="j" horiz-adv-x="396" 
d="M327 717q14 0 24 -8.5t10 -21.5v-674q0 -68 -7 -117.5t-30 -82t-67.5 -48.5t-120.5 -16h-83q-14 0 -23.5 8.5t-9.5 20.5v108q0 12 9.5 21t23.5 9h62q18 0 28 5.5t14.5 17t5.5 30t1 44.5v674q0 13 9.5 21.5t23.5 8.5h130zM327 983q14 0 24 -9t10 -21v-129q0 -13 -10 -21.5
t-24 -8.5h-131q-14 0 -24 8.5t-10 21.5v129q0 12 10 21t24 9h131z" />
    <glyph glyph-name="k" unicode="k" horiz-adv-x="649" 
d="M623 32q8 -13 4.5 -21.5t-17.5 -8.5h-141q-17 -1 -26.5 0t-15.5 4t-10.5 8.5l-10.5 13.5l-185 238l-5 -6v-231q0 -13 -9.5 -21.5t-23.5 -8.5h-129q-14 0 -24 8.5t-10 21.5v912q0 12 10 21t24 9h129q14 0 23.5 -9t9.5 -21v-432l8 9l168 163q16 18 29.5 21t38.5 3h134
q14 0 17.5 -9t-5.5 -21l-245 -273l262 -370v0z" />
    <glyph glyph-name="l" unicode="l" horiz-adv-x="320" 
d="M268 186q13 -1 22.5 -9.5t9.5 -20.5v-125q0 -13 -9.5 -22t-23.5 -9h-78h-1h-130q-16 0 -27 10t-11 24v70v1v751v81q0 12 9.5 21t23.5 9h141q14 0 23.5 -9t9.5 -21v-143v-547q0 -35 2 -48t26 -13h11h2v0z" />
    <glyph glyph-name="m" unicode="m" horiz-adv-x="1140" 
d="M878 706q99 0 149.5 -23t70.5 -62.5t20.5 -91.5t0.5 -110v-280v-112q0 -27 -30 -27h-128q-14 0 -23.5 9t-9.5 21v109v242q0 31 -2 57.5t-13 46t-34.5 30t-66.5 10.5q-50 0 -77 -11t-39.5 -31t-14.5 -48t-2 -62v-268l-1 -76q0 -27 -30 -27h-126q-14 0 -24 9t-10 21v73v276
q0 31 -4.5 57.5t-18 46t-39.5 30t-69 10.5q-50 0 -79 -11t-44 -31t-19.5 -48t-4.5 -62v-302v-42q0 -13 -8 -20t-22 -7h-127q-14 0 -23.5 9t-9.5 21v39v591v14q0 13 9.5 21.5t23.5 8.5h127q14 0 22 -10.5t8 -22.5v-33l21 27.5t30.5 21t58 13t104.5 4.5q49 0 83.5 -6t58 -17
t37.5 -25.5t22 -30.5q8 18 22.5 32.5t42 25t73 16t115.5 5.5z" />
    <glyph glyph-name="n" unicode="n" horiz-adv-x="698" 
d="M432 704q78 0 126 -20.5t74.5 -58t36 -90.5t9.5 -117v-260v-118v-11q0 -12 -9.5 -21t-23.5 -9h-123q-14 0 -23.5 9t-9.5 21v11v340q0 31 -3.5 58t-16 46t-37.5 30t-68 11q-50 0 -80 -11t-46.5 -31.5t-22 -48.5t-5.5 -62v-211v-3v-129q0 -12 -9.5 -21t-23.5 -9h-124
q-14 0 -23.5 9t-9.5 21v41v88v386v129v4q2 11 11.5 18.5t21.5 7.5h124q14 0 23.5 -8.5t9.5 -21.5v-42l24 28.5t32.5 23t59.5 15.5t106 6z" />
    <glyph glyph-name="o" unicode="o" horiz-adv-x="828" 
d="M20 350q0 84 21.5 149.5t69 110t122 67.5t181.5 23q106 0 181 -23t122.5 -67.5t69 -110t21.5 -149.5q0 -85 -21.5 -150.5t-69 -110t-122.5 -67.5t-181 -23q-107 0 -181.5 23t-122 67.5t-69 110t-21.5 150.5zM598 345q0 43 -8.5 78.5t-29.5 60.5t-56.5 39t-89.5 14
t-89.5 -14t-56.5 -39t-29 -60.5t-8 -78.5t8 -78.5t29 -61t56.5 -40t89.5 -14.5t89.5 14.5t56.5 40t29.5 61t8.5 78.5z" />
    <glyph glyph-name="p" unicode="p" horiz-adv-x="851" 
d="M35 663q0 13 10 21.5t24 8.5h140q14 0 23.5 -1.5t9.5 -14.5v-15q40 16 90.5 24.5t113.5 8.5q105 0 178.5 -22.5t119 -66t66.5 -108.5t21 -149t-21.5 -148.5t-68 -109t-120.5 -67t-179 -22.5q-62 0 -111 8t-88 22v-265h-1q-1 -12 -9.5 -20t-22.5 -8h-141q-14 0 -23 8
t-11 20v1v1v85v762v47zM442 539q-53 0 -88 -13t-56 -37t-29.5 -58t-8.5 -77q0 -42 8.5 -77t29.5 -60t56 -39t88 -14q54 0 89 14t55.5 39t29 60t8.5 77q0 43 -8.5 77t-29 58t-55.5 37t-89 13z" />
    <glyph glyph-name="q" unicode="q" horiz-adv-x="847" 
d="M827 620v-772v-86v-1v-1h-1q-1 -12 -10 -20t-23 -8h-143q-14 0 -23 8t-10 20h-1v269q-39 -15 -88.5 -23t-112.5 -8q-107 0 -182 23t-122 68t-69 110.5t-22 150.5t21 150.5t68 109.5t121 67t181 23q63 0 114.5 -8.5t91.5 -24.5v15q0 13 10 14.5t24 1.5h142q14 0 24 -8.5
t10 -21.5v-48zM599 355q0 43 -8.5 77.5t-29.5 59t-56.5 37.5t-89.5 13t-89.5 -13t-56.5 -37.5t-29.5 -59t-8.5 -77.5t8.5 -78.5t29.5 -61t56.5 -39.5t89.5 -14t89.5 14t56.5 39.5t29.5 61t8.5 78.5z" />
    <glyph glyph-name="r" unicode="r" horiz-adv-x="469" 
d="M436 700q11 0 22 -7t11 -23v-7v-116v-6q0 -12 -9.5 -21t-23.5 -9h-45q-51 -3 -83 -14.5t-50 -31.5t-24.5 -49t-6.5 -67v-195v-127q0 -13 -9.5 -21.5t-23.5 -8.5h-141q-14 0 -23.5 8.5t-9.5 21.5v127v3v426v1v86q0 12 9.5 21t23.5 9h141q14 0 24 -9t10 -21v-44
q12 22 36 36t53 22t60 11t57 4h1l1 1v0z" />
    <glyph glyph-name="s" unicode="s" horiz-adv-x="717" 
d="M347 1q-46 0 -85.5 3.5t-76.5 11.5t-71.5 22t-70.5 34l-10 5q-12 7 -12.5 15.5t7.5 21.5l49 99q5 12 11 14.5t16 -2.5l31 -16q52 -26 107.5 -40t118.5 -13q39 0 65 2.5t41 8.5t21.5 16.5t6.5 27.5q0 15 -6.5 24t-21.5 15.5t-40.5 10.5t-63.5 9q-69 8 -128.5 19t-103 33.5
t-68.5 61.5t-25 104q0 46 14 82t45 62q38 32 103 48t163 16q90 0 159.5 -11.5t131.5 -39.5q13 -6 13.5 -16.5t-4.5 -21.5l-43 -95q-5 -11 -13.5 -15.5t-19.5 0.5l-33 12q-48 17 -94.5 21.5t-89.5 4.5q-40 0 -64.5 -3t-38.5 -9t-19 -15t-5 -21q0 -14 5.5 -23t20 -15t38 -10.5
t59.5 -8.5q71 -9 131.5 -19t105 -31.5t69.5 -58.5t25 -99q0 -57 -13.5 -99t-51.5 -69t-106.5 -40t-178.5 -13z" />
    <glyph glyph-name="t" unicode="t" horiz-adv-x="515" 
d="M462 163q14 0 23.5 -8.5t9.5 -21.5v-103q0 -11 -8.5 -19t-20.5 -10q-1 -1 -4 -1h-86h-17h-4h-4q-63 2 -104.5 15.5t-66.5 40t-35.5 66.5t-10.5 95v384h-83q-13 0 -22 10t-9 24v7v90q0 14 9 23.5t21 9.5h93v170q0 13 9.5 21.5t23.5 8.5h117q14 0 23.5 -8.5t9.5 -21.5v-170
h134q12 0 21 -10t9 -24v-96q0 -14 -9 -24t-21 -10h-134v-356q0 -18 1.5 -32t8.5 -24.5t19.5 -17t35.5 -8.5h71v0z" />
    <glyph glyph-name="u" unicode="u" horiz-adv-x="699" 
d="M646 700q14 0 23.5 -9t9.5 -21v-20v-101v-210q0 -89 -14 -153t-50.5 -104.5t-100.5 -59.5t-163 -19t-163.5 19t-101.5 59.5t-51.5 104t-14.5 152.5v211v74v47q0 12 9.5 21t23.5 9h19h93h14q14 0 24 -9t10 -21v-121q0 -1 -1 -2v-213q0 -36 2.5 -66.5t16 -52t42 -33.5
t79.5 -12t79 12t41.5 34t16 52.5t2.5 66.5v214v121q0 12 9.5 21t23.5 9h17h59h46v0z" />
    <glyph glyph-name="v" unicode="v" horiz-adv-x="741" 
d="M12 671q-5 12 2 21t21 9h5h132h8q14 0 26.5 -8.5t17.5 -20.5l48 -129q0 -2 0.5 -2.5t0.5 -2.5l106 -284l150 418q5 12 17.5 20.5t26.5 8.5h16h104h13q14 0 21 -9t2 -21l-232 -632q-8 -21 -22 -27.5t-25 -6.5h-139q-13 0 -28.5 6.5t-23.5 27.5l-246 630z" />
    <glyph glyph-name="w" unicode="w" horiz-adv-x="1264" 
d="M1219 703q14 0 21 -9.5t2 -21.5l-222 -634q-8 -21 -22 -27.5t-25 -6.5h-139q-13 0 -28.5 6.5t-23.5 27.5l-147 381l-139 -381q-8 -21 -21.5 -27.5t-25.5 -6.5h-138q-13 0 -28.5 6.5t-23.5 27.5l-237 632h1l-1 2q-5 12 2 21.5t21 9.5h4h132h8q14 0 27 -9t18 -21l47 -123
q1 -2 1 -5l97 -291l149 419q5 12 18 21t27 9h2h5h9h93h10h4h7q14 0 26.5 -9t17.5 -21l48 -123q0 -2 0.5 -2.5t0.5 -2.5l106 -291l140 419q5 12 17.5 21t26.5 9h16h104h13v0z" />
    <glyph glyph-name="x" unicode="x" horiz-adv-x="741" 
d="M712 699q14 0 17.5 -9t-4.5 -21l-239 -306l238 -337q8 -13 4.5 -21.5t-17.5 -8.5h-151q-25 0 -33.5 6.5t-20.5 23.5l-132 192l-132 -192l-11.5 -14.5t-9.5 -9t-12.5 -5t-20.5 -1.5h-157q-14 0 -17.5 8.5t4.5 21.5l244 337l-245 306q-9 12 -5.5 21t17.5 9h151
q12 0 19.5 -1.5t13 -5.5t10.5 -9.5t11 -13.5l141 -171l139 171l13 15t10 9.5t12 4.5t19 1h144v0z" />
    <glyph glyph-name="y" unicode="y" horiz-adv-x="761" 
d="M22 670q-5 12 2 21.5t21 9.5h5h131h9q14 0 26.5 -9t17.5 -21l47 -129q1 -2 1 -2.5t1 -2.5l106 -276l150 410q5 12 17.5 21t26.5 9h16h104h13q14 0 21 -9.5t2 -21.5l-270 -725l-37 -76t-47 -63.5t-74.5 -43t-119.5 -14.5h-23h-26q-14 0 -23.5 8.5t-9.5 21.5v109
q0 13 9.5 21.5t23.5 8.5h28q27 0 45 5t29.5 13.5t18.5 20t13 26.5l7 35l-260 651z" />
    <glyph glyph-name="z" unicode="z" horiz-adv-x="655" 
d="M601 701q14 0 24 -9t10 -21v-107q0 -16 -11 -24l-9 -10l-345 -367h311q14 0 24 -9t10 -21v-107q0 -12 -10 -21t-24 -9h-528q-14 0 -23.5 9t-9.5 21v102q0 6 3 11q2 7 6 11l343 384h-299q-14 0 -23.5 9t-9.5 21v107q0 12 9.5 21t23.5 9h528v0z" />
    <glyph glyph-name="a" unicode="a" horiz-adv-x="727" 
d="M707 30q0 -14 -3 -21t-14 -8v-1h-55q-53 0 -80.5 19t-47.5 58q-10 -28 -30 -43t-49.5 -22t-68.5 -8.5t-87 -1.5q-78 0 -127 16t-76.5 44t-38 66t-10.5 82q0 71 25.5 116.5t78 71.5t133.5 36t193 10h27q0 22 -4.5 39.5t-18.5 28.5t-40.5 17t-69.5 6q-42 0 -78.5 -8.5
t-66.5 -20.5q-16 -6 -31 -14l-29 -16l-20 -12q-1 -2 -5 -4q-1 -1 -1.5 -1t-1.5 -1l-1 -1q-8 -4 -14 -2t-13 13l-52 97q-8 12 -8 20.5t11 16.5l9 6q51 35 101.5 53.5t110.5 27.5q51 9 109 9q91 0 147.5 -15t88.5 -47t43.5 -82.5t11.5 -121.5v-203v-34t3.5 -18t10.5 -8t21 -2
v-1q8 -1 12.5 -6t4.5 -18v-112zM477 316h-16q-89 0 -141 -4t-80 -14.5t-36 -28t-8 -44.5q0 -38 24.5 -62.5t88.5 -24.5q88 0 128 39.5t40 113.5v25z" />
    <glyph glyph-name="b" unicode="b" horiz-adv-x="847" 
d="M21 79v771v1v85v1v1q1 12 10 20.5t23 8.5h143q14 0 23.5 -8.5t10.5 -20.5v-269q39 15 88.5 23t112.5 8q106 0 181.5 -23t122.5 -68t69 -110.5t22 -150.5t-21 -150.5t-68 -109.5t-121.5 -67t-180.5 -23q-32 0 -60.5 6.5t-54 15.5t-48.5 19l-43 18v-41q0 -12 -9.5 -14
t-23.5 -2h-143q-14 0 -24 8.5t-10 21.5zM248 343q0 -43 8.5 -77.5t29.5 -59t56.5 -37.5t89.5 -13t89.5 13t56.5 37.5t29.5 59t8.5 77.5t-8.5 78.5t-29.5 61t-56.5 39.5t-89.5 14t-89.5 -14t-56.5 -39.5t-29.5 -61t-8.5 -78.5z" />
    <glyph glyph-name="c" unicode="c" horiz-adv-x="524" 
d="M475 529q-51 0 -95.5 -13t-76.5 -37t-50.5 -58t-18.5 -75t18.5 -75t50.5 -58t76.5 -37.5t95.5 -13.5v-1q29 -3 29 -30v-98q0 -14 -7.5 -22.5t-21.5 -10.5v-1h-5h-1v1q-99 1 -179 24t-137 68t-87.5 110t-30.5 150q0 83 31 147.5t88.5 108.5t139 67t181.5 23
q12 0 20.5 -7.5t8.5 -17.5v-112q0 -15 -6 -23.5t-23 -8.5z" />
    <glyph glyph-name="d" unicode="d" horiz-adv-x="846" 
d="M826 31q0 -13 -10 -21.5t-24 -8.5h-142q-14 0 -24 2t-10 14v31q-40 -16 -91.5 -32.5t-114.5 -16.5q-107 0 -181 23t-120.5 67t-67.5 109.5t-21 150.5t21.5 150.5t69 110.5t122 68t181.5 23q63 0 112.5 -8t88.5 -23v269h1q1 12 10 20.5t23 8.5h143q14 0 23 -8.5t11 -20.5
v-1v-1v-85v-1v-771v-49zM403 157q109 0 165 50.5t56 136.5q0 43 -8.5 78.5t-29.5 61t-56.5 39.5t-89.5 14t-95.5 -14t-69.5 -39.5t-42 -61t-14 -78.5t8.5 -77.5t29.5 -59t56.5 -37.5t89.5 -13z" />
    <glyph glyph-name="colon" unicode=":" horiz-adv-x="270" 
d="M20 671q0 12 10 21t24 9h156q40 0 40 -30v-152q0 -12 -8 -20.5t-22 -8.5h-166q-14 0 -24 8.5t-10 20.5v152zM20 182q0 12 10 21t24 9h156q40 0 40 -30v-152q0 -12 -8 -20.5t-22 -8.5h-166q-14 0 -24 8.5t-10 20.5v152z" />
    <glyph glyph-name="semicolon" unicode=";" horiz-adv-x="270" 
d="M217 211h-163q-14 0 -24 -8.5t-10 -20.5v-152q0 -12 10 -20.5t24 -8.5h76q0 -10 -1.5 -21t-8 -21.5t-20 -21t-35.5 -19.5l-16 -8q-8 -4 -12 -11.5t0 -15.5l27 -59q4 -8 12 -10t16 2l15 7l7.5 3t6.5 3q40 22 65.5 46t39.5 48t19 48t5 45v14v63v89q0 12 -9.5 20.5
t-23.5 8.5zM20 673q0 12 10 21t24 9h156q40 0 40 -30v-152q0 -12 -8 -20.5t-22 -8.5h-166q-14 0 -24 8.5t-10 20.5v152z" />
    <glyph glyph-name="less" unicode="&#x3c;" 
d="M735 752q12 5 21 -2t9 -21v-4v-131v-9q0 -14 -8.5 -26.5t-20.5 -17.5l-128 -47q-2 0 -2.5 -0.5t-2.5 -0.5l-290 -126l423 -166q12 -5 20.5 -17.5t8.5 -26.5v-15v-103v-14q0 -14 -9 -21t-21 -2l-635 248q-22 8 -28 22t-6 25v137q0 13 6 28.5t28 23.5l633 265z" />
    <glyph glyph-name="equal" unicode="=" 
d="M116 417q-12 0 -21 9.5t-9 23.5v140q0 14 9 23.5t21 9.5h612q12 0 20.5 -9.5t8.5 -23.5v-140q0 -14 -8.5 -23.5t-20.5 -9.5h-612zM116 78q-12 0 -21 10t-9 24v139q0 14 9 23.5t21 9.5h612q12 0 20.5 -9.5t8.5 -23.5v-139q0 -14 -8.5 -24t-20.5 -10h-612z" />
    <glyph glyph-name="greater" unicode="&#x3e;" 
d="M98 0q-13 -5 -22 2t-9 21v4v131v8q0 14 8.5 27t21.5 18l128 47q1 0 2 0.5t2 0.5l290 126l-422 166q-13 5 -21.5 17.5t-8.5 26.5v15v103v14q0 14 9 21t22 2l635 -248q21 -8 27.5 -22t5.5 -25l1 -137q0 -14 -6.5 -29t-27.5 -23l-633 -265h-1z" />
    <glyph glyph-name="question" unicode="?" horiz-adv-x="761" 
d="M386 965q90 0 157 -14t111 -44.5t65.5 -78.5t21.5 -116q0 -53 -12 -91t-34.5 -66.5t-55.5 -49.5t-75 -40q-32 -14 -52 -24.5t-32.5 -21t-18 -23t-7.5 -29.5v-65q0 -13 -9.5 -21.5t-23.5 -8.5h-152q-4 0 -7 0.5t-7 1.5h-1l-1 1q-8 4 -13.5 11t-5.5 16h1q-1 1 -1 3
q1 53 9 92t27 69.5t51.5 54t82.5 45.5q41 18 66.5 32t39.5 27.5t19 29.5t5 39q0 22 -5.5 39t-23 28.5t-49.5 17.5t-85 6q-44 0 -80 -5t-69 -13q-5 -2 -8.5 -2.5t-7.5 -1.5q-23 -7 -45 -15l-45 -17h-1q-16 -7 -27 16l-60 114q-7 14 -7.5 22.5t11.5 13.5l9 4q27 13 54 21
q125 43 291 43zM421 207q14 0 23.5 -8.5t9.5 -20.5v-150q0 -12 -9.5 -21t-23.5 -9h-152q-14 0 -23.5 9t-9.5 21v150q0 12 9.5 20.5t23.5 8.5h152z" />
    <glyph glyph-name="at" unicode="@" horiz-adv-x="1293" 
d="M966 681v-114v-372q0 -21 3.5 -39.5t12.5 -31.5t26 -20.5t46 -7.5q36 0 56.5 12.5t31 41.5t13 76.5t2.5 118.5q0 144 -35.5 242t-101.5 158t-161 86t-215 26q-114 0 -207 -26t-160 -86t-103.5 -158t-36.5 -242q0 -140 36 -234.5t104 -153t166.5 -83.5t223.5 -25
q91 0 179 16.5t156 46.5l23 11q22 10 31 -12l24 -57q4 -9 1 -18.5t-13 -14.5q-81 -41 -182.5 -62t-217.5 -21q-156 0 -277 31t-203.5 102.5t-125 187.5t-42.5 286q0 173 46.5 292t129 192.5t197 106t251.5 32.5q140 0 255.5 -32.5t198.5 -106t129 -192.5t46 -292
q0 -103 -12.5 -171.5t-42.5 -109t-81 -57t-128 -16.5q-57 0 -93.5 9t-59 23t-34 32.5t-16.5 37.5q-15 -21 -33.5 -38t-46.5 -29.5t-67 -19t-94 -6.5q-86 0 -142 27.5t-89 75.5t-46 112t-13 138q0 73 14.5 137t49 111t92.5 74.5t145 27.5q49 0 84.5 -3.5t61 -12t42.5 -21.5
t30 -32v47q0 9 7 15.5t17 6.5h118q28 0 30 -21v-1zM613 158q90 0 128 47.5t38 147.5q0 49 -8 83t-27.5 56t-51.5 32t-79 10q-44 0 -72.5 -13t-45.5 -37t-24 -57.5t-7 -73.5q0 -41 7 -77t24 -62t45.5 -41t72.5 -15z" />
    <glyph glyph-name="plus" unicode="+" horiz-adv-x="765" 
d="M695 453q12 0 21 -9.5t9 -23.5v-140q0 -14 -9 -23.5t-21 -9.5h-209v-200q0 -12 -10 -21t-24 -9h-139q-14 0 -24 9t-10 21v200h-209q-12 0 -21 9.5t-9 23.5v140q0 14 9 23.5t21 9.5h209v199q0 12 10 21t24 9h139q14 0 24 -9t10 -21v-199h209v0z" />
    <glyph glyph-name="comma" unicode="," horiz-adv-x="270" 
d="M217 211q14 0 23.5 -8.5t9.5 -20.5v-89v-63v-14q0 -21 -5 -45t-19 -48t-39.5 -48t-65.5 -46q-4 -2 -6.5 -3l-7.5 -3l-15 -7q-8 -4 -16 -2t-12 10l-27 59q-4 8 0 15.5t12 11.5l16 8q22 9 35.5 19.5t20 21t8 21.5t1.5 21h-76q-14 0 -24 8.5t-10 20.5v152q0 12 10 20.5
t24 8.5h163v0z" />
    <glyph glyph-name="hyphen" unicode="-" horiz-adv-x="751" 
d="M69 248q-12 0 -20.5 9.5t-8.5 23.5v140q0 14 8.5 23.5t20.5 9.5h612q12 0 21 -9.5t9 -23.5v-140q0 -14 -9 -23.5t-21 -9.5h-612z" />
    <glyph glyph-name="period" unicode="." horiz-adv-x="290" 
d="M30 182q0 12 10 21t24 9h156q40 0 40 -30v-152q0 -12 -8 -20.5t-22 -8.5h-166q-14 0 -24 8.5t-10 20.5v152z" />
    <glyph glyph-name="slash" unicode="/" horiz-adv-x="752" 
d="M223 29q-7 -12 -21.5 -21t-28.5 -9h-132q-14 0 -19 9t3 21l504 907q8 12 22.5 21t28.5 9h132q14 0 18.5 -9t-2.5 -21z" />
    <glyph glyph-name="exclam" unicode="!" horiz-adv-x="306" 
d="M30 929q0 13 9.5 21.5t23.5 8.5h180q14 0 23.5 -8.5t9.5 -21.5l-20 -635q0 -12 -9.5 -21t-23.5 -9h-140q-14 0 -23.5 9t-9.5 21zM58 157q0 12 9.5 20.5t23.5 8.5h140q14 0 23.5 -8.5t9.5 -20.5v-128q0 -13 -9.5 -21.5t-23.5 -8.5h-140q-14 0 -23.5 8.5t-9.5 21.5v128z
" />
    <glyph glyph-name="quotedbl" unicode="&#x22;" horiz-adv-x="482" 
d="M178 696q11 0 18.5 -7.5t7.5 -17.5v-71v-51v-11q0 -17 -4 -36t-15.5 -38.5t-31.5 -38.5t-52 -37q-5 -3 -11 -5l-13 -6q-15 -7 -22 7l-22 47q-3 6 0 12.5t10 9.5l13 6q36 14 44.5 32.5t8.5 34.5h-62q-12 0 -19.5 6.5t-7.5 16.5v122q0 10 7.5 17.5t19.5 7.5h131zM416 696
q11 0 18.5 -7.5t7.5 -17.5v-71v-51v-11q0 -17 -4 -36t-15.5 -38.5t-31.5 -38.5t-52 -37q-5 -3 -11 -5l-13 -6q-15 -7 -22 7l-22 47q-3 6 0 12.5t10 9.5l13 6q36 14 44.5 32.5t8.5 34.5h-62q-12 0 -19.5 6.5t-7.5 16.5v122q0 10 7.5 17.5t19.5 7.5h131z" />
    <glyph glyph-name="quotesingle" unicode="'" horiz-adv-x="289" 
d="M216 751q14 0 23.5 -9t9.5 -21v-89v-63v-14q0 -21 -5 -45t-19 -48t-39.5 -48t-65.5 -46q-4 -2 -6.5 -3t-6.5 -3l-16 -7q-8 -4 -16 -2t-12 10l-27 59q-4 8 0 15.5t12 11.5l16 8q22 9 35.5 19.5t20 21.5t8.5 21.5t2 20.5h-77q-14 0 -23.5 8.5t-9.5 20.5v152q0 12 9.5 21
t23.5 9h163v0z" />
    <glyph glyph-name="dollar" unicode="$" horiz-adv-x="1233" 
d="M1073 539q3 -20 2 -42.5t-4 -45.5q-9 -47 -20.5 -81.5t-28.5 -74.5q-20 -47 -50.5 -93t-81.5 -94l64 -134l-146 83q-48 -28 -99.5 -35.5t-106.5 -5.5q-31 0 -60.5 6t-58.5 15q-65 18 -122 54.5t-102.5 86t-77.5 110t-47 127.5q-11 52 2 99t43 88t74 75t95.5 59.5t107 41
t109.5 20.5q55 5 112.5 1t112.5 -17t104.5 -34.5t87.5 -52t62 -69.5t29 -87zM602 376q0 16 -13 20l-307 125q-14 5 -14 -9l8 -68q5 -16 16 -21l192 -79q6 -2 10.5 -8.5t4.5 -11.5v-62q0 -15 -13 -9l-183 83q-16 4 -13 -8l6 -64q5 -15 16 -21l272 -133q4 -3 8 -0.5t4 7.5z
M314 354q-6 -2 -5 -5.5t7 -5.5l158 -72q5 -3 8.5 -0.5t3.5 8.5v37q0 5 -4.5 11t-9.5 9l-92 38q-7 2 -15 1.5t-14 -3.5zM596 409q14 -7 28 0l79 40q7 3 7 7.5t-7 7.5l-198 82q-6 2 -6 5.5t6 7.5l95 48q6 3 15 4t15 -2l198 -83q7 -2 16 -1.5t15 3.5l81 41q5 4 6.5 8.5
t-5.5 7.5l-304 123q-7 3 -16 2t-15 -4l-318 -161q-5 -3 -5 -7t5 -6zM800 336q6 -3 10.5 -0.5t4.5 8.5l18 154q2 6 -2.5 11.5t-10.5 9.5l-180 72q-5 4 -10.5 1t-5.5 -9l-2 -55q0 -5 4 -11.5t11 -8.5l86 -39q7 -2 11 -9t4 -13l-6 -60q0 -6 3.5 -12t7.5 -8zM794 308q14 7 2 14
l-53 30q-5 3 -9.5 0.5t-4.5 -8.5l-6 -60q0 -16 13 -9zM610 585q0 6 -4 8t-10 -2l-61 -30q-6 -3 -6 -7t6 -6l59 -24q14 -4 14 8zM958 550q3 16 -13 9l-80 -40q-6 -4 -11.5 -10.5t-7.5 -13.5l-20 -173q-2 -6 -6 -12.5t-9 -9.5l-90 -45q-5 -3 -8.5 -0.5t-3.5 9.5l12 167
q2 7 -2 9.5t-10 -0.5l-79 -41q-14 -9 -14 -23l-8 -261q0 -12 12 -7l279 147q5 3 10 9.5t7 14.5z" />
    <glyph glyph-name="bracketleft" unicode="[" horiz-adv-x="437" 
d="M40 939q0 9 6 17q8 13 24 13h317q13 0 21.5 -9.5t8.5 -23.5v-89q0 -14 -8.5 -23.5t-21.5 -9.5h-160v-906h160q13 0 21.5 -10t8.5 -24v-91q0 -14 -8.5 -24t-21.5 -10h-193h-121h-3q-10 0 -21 9q-9 11 -9 21v1160z" />
    <glyph glyph-name="backslash" unicode="\" 
d="M771 29q7 -12 2.5 -21t-18.5 -9h-132q-14 0 -28.5 9t-22.5 21l-504 907q-8 12 -3 21t19 9h132q14 0 28.5 -9t21.5 -21z" />
    <glyph glyph-name="bracketright" unicode="]" horiz-adv-x="438" 
d="M398 -216q0 -10 -7 -17q-8 -14 -23 -14h-318q-12 0 -21 10t-9 24v88q0 14 9 24t21 10h160v916h-160q-12 0 -21 9.5t-9 23.5v92q0 14 9 23.5t21 9.5h193h121h4q12 0 20 -9q10 -8 10 -21v-1169z" />
    <glyph glyph-name="A" unicode="A" horiz-adv-x="727" 
d="M707 30q0 -14 -3 -21t-14 -8v-1h-55q-53 0 -80.5 19t-47.5 58q-10 -28 -30 -43t-49.5 -22t-68.5 -8.5t-87 -1.5q-78 0 -127 16t-76.5 44t-38 66t-10.5 82q0 71 25.5 116.5t78 71.5t133.5 36t193 10h27q0 22 -4.5 39.5t-18.5 28.5t-40.5 17t-69.5 6q-42 0 -78.5 -8.5
t-66.5 -20.5q-16 -6 -31 -14l-29 -16l-20 -12q-1 -2 -5 -4q-1 -1 -1.5 -1t-1.5 -1l-1 -1q-8 -4 -14 -2t-13 13l-52 97q-8 12 -8 20.5t11 16.5l9 6q51 35 101.5 53.5t110.5 27.5q51 9 109 9q91 0 147.5 -15t88.5 -47t43.5 -82.5t11.5 -121.5v-203v-34t3.5 -18t10.5 -8t21 -2
v-1q8 -1 12.5 -6t4.5 -18v-112zM477 316h-16q-89 0 -141 -4t-80 -14.5t-36 -28t-8 -44.5q0 -38 24.5 -62.5t88.5 -24.5q88 0 128 39.5t40 113.5v25z" />
    <glyph glyph-name="B" unicode="B" horiz-adv-x="847" 
d="M21 79v771v1v85v1v1q1 12 10 20.5t23 8.5h143q14 0 23.5 -8.5t10.5 -20.5v-269q39 15 88.5 23t112.5 8q106 0 181.5 -23t122.5 -68t69 -110.5t22 -150.5t-21 -150.5t-68 -109.5t-121.5 -67t-180.5 -23q-63 0 -114.5 11.5t-91.5 27.5v-21q0 -12 -9.5 -14t-23.5 -2h-143
q-14 0 -24 8.5t-10 21.5zM248 343q0 -43 8.5 -77.5t29.5 -59t56.5 -37.5t89.5 -13t89.5 13t56.5 37.5t29.5 59t8.5 77.5t-8.5 78.5t-29.5 61t-56.5 39.5t-89.5 14t-89.5 -14t-56.5 -39.5t-29.5 -61t-8.5 -78.5z" />
    <glyph glyph-name="C" unicode="C" horiz-adv-x="524" 
d="M475 529q-51 0 -95.5 -13t-76.5 -37t-50.5 -58t-18.5 -75t18.5 -75t50.5 -58t76.5 -37.5t95.5 -13.5v-1q29 -3 29 -30v-98q0 -14 -7.5 -22.5t-21.5 -10.5v-1h-5h-1v1q-99 1 -179 24t-137 68t-87.5 110t-30.5 150q0 83 31 147.5t88.5 108.5t139 67t181.5 23
q12 0 20.5 -7.5t8.5 -17.5v-112q0 -15 -6 -23.5t-23 -8.5z" />
    <glyph glyph-name="D" unicode="D" horiz-adv-x="846" 
d="M826 31q0 -13 -10 -21.5t-24 -8.5h-142q-14 0 -24 2t-10 14v31q-40 -16 -91.5 -32.5t-114.5 -16.5q-107 0 -181 23t-120.5 67t-67.5 109.5t-21 150.5t21.5 150.5t69 110.5t122 68t181.5 23q63 0 112.5 -8t88.5 -23v269h1q1 12 10 20.5t23 8.5h143q14 0 23 -8.5t11 -20.5
v-1v-1v-85v-1v-771v-49zM403 157q109 0 165 50.5t56 136.5q0 43 -8.5 78.5t-29.5 61t-56.5 39.5t-89.5 14t-95.5 -14t-69.5 -39.5t-42 -61t-14 -78.5t8.5 -77.5t29.5 -59t56.5 -37.5t89.5 -13z" />
    <glyph glyph-name="E" unicode="E" horiz-adv-x="757" 
d="M405 700q81 0 138 -15t94 -42.5t57.5 -65.5t30 -84.5t10.5 -99t0 -108.5h-516q4 -30 15.5 -55t33 -43t55 -27.5t83.5 -9.5q43 0 72 4t51 11.5t40 18t39 24.5q12 9 23.5 8t19.5 -12l58 -75q13 -16 16 -23.5t-17 -21.5q-2 -2 -4 -3q-35 -24 -65.5 -39.5t-64.5 -25
t-74 -13.5t-94 -4q-120 0 -195.5 28t-117.5 76t-57.5 111.5t-15.5 135.5q0 70 15.5 133.5t58 111.5t117.5 76.5t194 28.5zM548 418q-2 29 -8 53.5t-21.5 42t-44 27.5t-76.5 10t-80 -9.5t-53 -26.5t-31.5 -41.5t-14.5 -55.5h329z" />
    <glyph glyph-name="F" unicode="F" horiz-adv-x="552" 
d="M464 810q-30 0 -49.5 -10.5t-30.5 -27.5t-15 -38.5t-4 -42.5v-8h132q14 0 23.5 -8.5t9.5 -20.5v-95q0 -13 -9.5 -21.5t-23.5 -8.5h-6h-126v-367v-3v-129q0 -12 -10 -21t-24 -9h-143q-14 0 -23.5 9t-9.5 21v4v495h-101q-14 0 -24 8.5t-10 21.5v95q0 12 10 20.5t24 8.5h101
v7q0 52 13.5 101.5t45 88.5t84 63t131.5 26q18 0 27.5 0.5t16 0.5h11.5h14q14 0 24 -8t10 -21v-101q0 -12 -10 -21t-24 -9h-34v0z" />
    <glyph glyph-name="G" unicode="G" horiz-adv-x="759" 
d="M389 164q105 0 172.5 -10.5t107 -33.5t55 -60t15.5 -91q0 -61 -22.5 -102.5t-68 -67t-114.5 -36.5t-163 -11q-97 0 -164 8t-108.5 28.5t-60 54t-18.5 84.5q0 58 31.5 95.5t100.5 53.5q-27 19 -37 42.5t-10 50.5q0 29 11.5 58.5t28.5 48.5q-45 26 -66 68t-21 101
q0 112 74 171t241 59h18t19 -1l87 17q4 2 7.5 3t8.5 1l165 51q33 10 33 -13v-112q0 -12 -9.5 -21t-23.5 -9h-14h-49q35 -20 55 -53t20 -93q0 -111 -75.5 -162t-241.5 -51q-24 0 -45.5 1.5t-43.5 1.5q-8 -11 -8.5 -19.5t-0.5 -14.5q0 -12 5 -19.5t18 -11t35 -5t56 -1.5z
M373 530q-76 0 -104 -21t-28 -66q0 -21 6.5 -37.5t21.5 -27.5t40.5 -16.5t63.5 -5.5q77 0 105 22t28 65q0 44 -29.5 65.5t-103.5 21.5zM378 -119q51 0 84 4.5t52 13.5t26.5 23t7.5 33q0 18 -8 32t-27.5 23t-52.5 13.5t-82 4.5q-57 0 -90.5 -6.5t-51 -17.5t-23 -25.5
t-5.5 -31.5q0 -18 7.5 -31t26.5 -20.5t52 -11t84 -3.5z" />
    <glyph glyph-name="H" unicode="H" horiz-adv-x="753" 
d="M733 158v-129q0 -12 -10 -21t-24 -9h-128q-14 0 -23.5 9t-9.5 21v9v332q0 32 -8.5 59.5t-28 47t-50.5 30.5t-76 11q-51 0 -81.5 -18t-47 -44t-22.5 -54.5t-8 -50.5v-188q0 -1 0.5 -2t0.5 -2v-129q0 -12 -11 -21t-25 -9h-127q-14 0 -24 9t-10 21v11v118v652v125v4
q0 12 9.5 21t23.5 9h129q14 0 24 -6t10 -24v-129q0 -2 -0.5 -3t-0.5 -2v-150q22 24 75.5 35.5t154.5 11.5q80 0 135 -21.5t88.5 -60t48.5 -93t15 -120.5v-249z" />
    <glyph glyph-name="I" unicode="I" horiz-adv-x="268" 
d="M248 31q0 -12 -9.5 -21t-23.5 -9h-141q-14 0 -24 9t-10 21v640q0 12 10 21t24 9h141q14 0 23.5 -9t9.5 -21v-640zM248 809q0 -13 -10 -21.5t-24 -8.5h-140q-14 0 -24 8.5t-10 21.5v129q0 12 10 21t24 9h140q14 0 24 -9t10 -21v-129z" />
    <glyph glyph-name="J" unicode="J" horiz-adv-x="396" 
d="M327 717q14 0 24 -8.5t10 -21.5v-674q0 -68 -7 -117.5t-30 -82t-67.5 -48.5t-120.5 -16h-83q-14 0 -23.5 8.5t-9.5 20.5v108q0 12 9.5 21t23.5 9h62q18 0 28 5.5t14.5 17t5.5 30t1 44.5v674q0 13 9.5 21.5t23.5 8.5h130zM327 983q14 0 24 -9t10 -21v-129q0 -13 -10 -21.5
t-24 -8.5h-131q-14 0 -24 8.5t-10 21.5v129q0 12 10 21t24 9h131z" />
    <glyph glyph-name="K" unicode="K" horiz-adv-x="649" 
d="M623 32q8 -13 4.5 -21.5t-17.5 -8.5h-141q-17 -1 -26.5 0t-15.5 4t-10.5 8.5l-10.5 13.5l-185 238l-5 -6v-231q0 -13 -9.5 -21.5t-23.5 -8.5h-129q-14 0 -24 8.5t-10 21.5v912q0 12 10 21t24 9h129q14 0 23.5 -9t9.5 -21v-432l8 9l168 163q16 18 29.5 21t38.5 3h134
q14 0 17.5 -9t-5.5 -21l-245 -273l262 -370v0z" />
    <glyph glyph-name="L" unicode="L" horiz-adv-x="320" 
d="M268 186q13 -1 22.5 -9.5t9.5 -20.5v-125q0 -13 -9.5 -22t-23.5 -9h-78h-1h-130q-16 0 -27 10t-11 24v70v1v751v81q0 12 9.5 21t23.5 9h141q14 0 23.5 -9t9.5 -21v-143v-547q0 -35 2 -48t26 -13h11h2v0z" />
    <glyph glyph-name="M" unicode="M" horiz-adv-x="1140" 
d="M878 706q99 0 149.5 -23t70.5 -62.5t20.5 -91.5t0.5 -110v-280v-112q0 -27 -30 -27h-128q-14 0 -23.5 9t-9.5 21v109v242q0 31 -2 57.5t-13 46t-34.5 30t-66.5 10.5q-50 0 -77 -11t-39.5 -31t-14.5 -48t-2 -62v-268l-1 -76q0 -27 -30 -27h-126q-14 0 -24 9t-10 21v73v276
q0 31 -4.5 57.5t-18 46t-39.5 30t-69 10.5q-50 0 -79 -11t-44 -31t-19.5 -48t-4.5 -62v-302v-42q0 -13 -8 -20t-22 -7h-127q-14 0 -23.5 9t-9.5 21v39v591v14q0 13 9.5 21.5t23.5 8.5h127q14 0 22 -10.5t8 -22.5v-33l21 27.5t30.5 21t58 13t104.5 4.5q49 0 83.5 -6t58 -17
t37.5 -25.5t22 -30.5q8 18 22.5 32.5t42 25t73 16t115.5 5.5z" />
    <glyph glyph-name="N" unicode="N" horiz-adv-x="698" 
d="M432 704q78 0 126 -20.5t74.5 -58t36 -90.5t9.5 -117v-260v-118v-11q0 -12 -9.5 -21t-23.5 -9h-123q-14 0 -23.5 9t-9.5 21v11v340q0 31 -3.5 58t-16 46t-37.5 30t-68 11q-50 0 -80 -11t-46.5 -31.5t-22 -48.5t-5.5 -62v-211v-3v-129q0 -12 -9.5 -21t-23.5 -9h-124
q-14 0 -23.5 9t-9.5 21v41v88v386v129v4q2 11 11.5 18.5t21.5 7.5h124q14 0 23.5 -8.5t9.5 -21.5v-42l24 28.5t32.5 23t59.5 15.5t106 6z" />
    <glyph glyph-name="O" unicode="O" horiz-adv-x="828" 
d="M20 350q0 84 21.5 149.5t69 110t122 67.5t181.5 23q106 0 181 -23t122.5 -67.5t69 -110t21.5 -149.5q0 -85 -21.5 -150.5t-69 -110t-122.5 -67.5t-181 -23q-107 0 -181.5 23t-122 67.5t-69 110t-21.5 150.5zM598 345q0 43 -8.5 78.5t-29.5 60.5t-56.5 39t-89.5 14
t-89.5 -14t-56.5 -39t-29 -60.5t-8 -78.5t8 -78.5t29 -61t56.5 -40t89.5 -14.5t89.5 14.5t56.5 40t29.5 61t8.5 78.5z" />
    <glyph glyph-name="P" unicode="P" horiz-adv-x="851" 
d="M35 663q0 13 10 21.5t24 8.5h140q14 0 23.5 -1.5t9.5 -14.5v-15q40 16 90.5 24.5t113.5 8.5q105 0 178.5 -22.5t119 -66t66.5 -108.5t21 -149t-21.5 -148.5t-68 -109t-120.5 -67t-179 -22.5q-62 0 -111 8t-88 22v-265h-1q-1 -12 -9.5 -20t-22.5 -8h-141q-14 0 -23 8
t-11 20v1v1v85v762v47zM442 539q-53 0 -88 -13t-56 -37t-29.5 -58t-8.5 -77q0 -42 8.5 -77t29.5 -60t56 -39t88 -14q54 0 89 14t55.5 39t29 60t8.5 77q0 43 -8.5 77t-29 58t-55.5 37t-89 13z" />
    <glyph glyph-name="Q" unicode="Q" horiz-adv-x="847" 
d="M827 620v-772v-86v-1v-1h-1q-1 -12 -10 -20t-23 -8h-143q-14 0 -23 8t-10 20h-1v269q-39 -15 -88.5 -23t-112.5 -8q-107 0 -182 23t-122 68t-69 110.5t-22 150.5t21 150.5t68 109.5t121 67t181 23q63 0 114.5 -8.5t91.5 -24.5v15q0 13 10 14.5t24 1.5h142q14 0 24 -8.5
t10 -21.5v-48zM599 355q0 43 -8.5 77.5t-29.5 59t-56.5 37.5t-89.5 13t-89.5 -13t-56.5 -37.5t-29.5 -59t-8.5 -77.5t8.5 -78.5t29.5 -61t56.5 -39.5t89.5 -14t89.5 14t56.5 39.5t29.5 61t8.5 78.5z" />
    <glyph glyph-name="R" unicode="R" horiz-adv-x="489" 
d="M436 700q11 0 22 -7t11 -23v-7v-116v-6q0 -12 -9.5 -21t-23.5 -9h-45q-51 -3 -83 -14.5t-50 -31.5t-24.5 -49t-6.5 -67v-195v-127q0 -13 -9.5 -21.5t-23.5 -8.5h-141q-14 0 -23.5 8.5t-9.5 21.5v127v3v426v1v86q0 12 9.5 21t23.5 9h141q14 0 24 -9t10 -21v-44
q12 22 36 36t53 22t60 11t57 4h1l1 1v0z" />
    <glyph glyph-name="S" unicode="S" horiz-adv-x="717" 
d="M347 0q-46 0 -85.5 3.5t-76.5 11.5t-71.5 22t-70.5 34q-2 2 -5 2.5t-5 2.5q-12 7 -12.5 15.5t7.5 21.5l24.5 49.5l24.5 49.5q5 12 11 14.5t16 -2.5l15.5 -8l15.5 -8q52 -26 107.5 -40t118.5 -13q39 0 65 2.5t41 8.5t21.5 16.5t6.5 27.5q0 15 -6.5 24t-21.5 15.5
t-40.5 10.5t-63.5 9q-69 8 -128.5 19t-103 33.5t-68.5 61.5t-25 104q0 46 14 82t45 62q38 32 103 48t163 16q90 0 159.5 -11.5t131.5 -39.5q13 -6 13.5 -16.5t-4.5 -21.5l-21.5 -47.5l-21.5 -47.5q-5 -11 -13.5 -15.5t-19.5 0.5l-33 12q-48 17 -94.5 21.5t-89.5 4.5
q-40 0 -64.5 -3t-38.5 -9t-19 -15t-5 -21q0 -14 5.5 -23t20 -15t38 -10.5t59.5 -8.5q71 -9 131.5 -19t105 -31.5t69.5 -58.5t25 -99q0 -57 -13.5 -99t-51.5 -69t-106.5 -40t-178.5 -13z" />
    <glyph glyph-name="T" unicode="T" horiz-adv-x="515" 
d="M462 163q14 0 23.5 -8.5t9.5 -21.5v-103q0 -11 -8.5 -19t-20.5 -10q-1 -1 -4 -1h-86h-17h-4h-4q-63 2 -104.5 15.5t-66.5 40t-35.5 66.5t-10.5 95v384h-83q-13 0 -22 10t-9 24v7v90q0 14 9 23.5t21 9.5h93v170q0 13 9.5 21.5t23.5 8.5h117q14 0 23.5 -8.5t9.5 -21.5v-170
h134q12 0 21 -10t9 -24v-96q0 -14 -9 -24t-21 -10h-134v-356q0 -18 1.5 -32t8.5 -24.5t19.5 -17t35.5 -8.5h71v0z" />
    <glyph glyph-name="U" unicode="U" horiz-adv-x="699" 
d="M646 700q14 0 23.5 -9t9.5 -21v-20v-101v-210q0 -89 -14 -153t-50.5 -104.5t-100.5 -59.5t-163 -19t-163.5 19t-101.5 59.5t-51.5 104t-14.5 152.5v211v74v47q0 12 9.5 21t23.5 9h19h93h14q14 0 24 -9t10 -21v-121q0 -1 -1 -2v-213q0 -36 2.5 -66.5t16 -52t42 -33.5
t79.5 -12t79 12t41.5 34t16 52.5t2.5 66.5v214v121q0 12 9.5 21t23.5 9h17h59h46v0z" />
    <glyph glyph-name="V" unicode="V" horiz-adv-x="741" 
d="M12 679q-5 12 2.5 17t21.5 5h5h132h8q14 0 26 -4.5t17 -16.5l48 -129q0 -2 0.5 -2.5t0.5 -2.5l106 -292l150 426q5 12 18 16.5t27 4.5h16h104h13q30 0 22 -22l-232 -640q-8 -21 -22 -27.5t-25 -6.5h-139q-13 0 -28.5 6.5t-23.5 27.5l-246 638z" />
    <glyph glyph-name="W" unicode="W" horiz-adv-x="1264" 
d="M1219 703q14 0 21 -9.5t2 -21.5l-222 -634q-8 -21 -22 -27.5t-25 -6.5h-139q-13 0 -28.5 6.5t-23.5 27.5l-147 381l-139 -381q-8 -21 -21.5 -27.5t-25.5 -6.5h-138q-13 0 -28.5 6.5t-23.5 27.5l-237 632h1l-1 2q-5 12 2 21.5t21 9.5h4h132h8q14 0 27 -9t18 -21l47 -123
q1 -2 1 -5l97 -291l149 419q5 12 18 21t27 9h2h5h9h93h10h4h7q14 0 26.5 -9t17.5 -21l48 -123q0 -2 0.5 -2.5t0.5 -2.5l106 -291l140 419q5 12 17.5 21t26.5 9h16h104h13v0z" />
    <glyph glyph-name="X" unicode="X" horiz-adv-x="741" 
d="M712 699q14 0 17.5 -9t-4.5 -21l-239 -306l238 -337q8 -13 4.5 -21.5t-17.5 -8.5h-151q-25 0 -33.5 6.5t-20.5 23.5l-132 192l-132 -192l-11.5 -14.5t-9.5 -9t-12.5 -5t-20.5 -1.5h-157q-14 0 -17.5 8.5t4.5 21.5l244 337l-245 306q-9 12 -5.5 21t17.5 9h151
q12 0 19.5 -1.5t13 -5.5t10.5 -9.5t11 -13.5l141 -171l139 171l13 15t10 9.5t12 4.5t19 1h144v0z" />
    <glyph glyph-name="Y" unicode="Y" horiz-adv-x="761" 
d="M22 670q-5 12 2 21.5t21 9.5h5h131h9q14 0 26.5 -9t17.5 -21l47 -129q1 -2 1 -2.5t1 -2.5l106 -276l150 410q5 12 17.5 21t26.5 9h16h104h13q14 0 21 -9.5t2 -21.5l-270 -725l-37 -76t-47 -63.5t-74.5 -43t-119.5 -14.5h-23h-26q-14 0 -23.5 8.5t-9.5 21.5v109
q0 13 9.5 21.5t23.5 8.5h28q27 0 45 5t29.5 13.5t18.5 20t13 26.5l7 35l-260 651z" />
    <glyph glyph-name="Z" unicode="Z" horiz-adv-x="655" 
d="M601 701q14 0 24 -9t10 -21v-107q0 -16 -11 -24l-9 -10l-345 -367h311q14 0 24 -9t10 -21v-107q0 -12 -10 -21t-24 -9h-528q-14 0 -23.5 9t-9.5 21v102q0 6 3 11q2 7 6 11l343 384h-299q-14 0 -23.5 9t-9.5 21v107q0 12 9.5 21t23.5 9h528v0z" />
    <glyph glyph-name="minus" unicode="&#x2212;" 
 />
    <glyph glyph-name="zero" unicode="0" horiz-adv-x="798" 
d="M20 445q0 109 20.5 193t65.5 140t117.5 85t176.5 29q103 0 175 -29t117 -85t65.5 -140t20.5 -193q0 -110 -20.5 -193.5t-65.5 -139.5t-117 -85t-175 -29q-104 0 -176.5 29t-117.5 85t-65.5 139.5t-20.5 193.5zM589 445q0 69 -8.5 121.5t-29.5 87.5t-57.5 53t-93.5 18
t-94 -18t-58 -53t-29.5 -87.5t-8.5 -121.5t8.5 -122.5t29.5 -90t58 -56t94 -19.5t93.5 19.5t57.5 56t29.5 90t8.5 122.5z" />
    <glyph glyph-name="one" unicode="1" horiz-adv-x="373" 
d="M344 874q9 -8 9 -20v-4v-102v-721q0 -12 -9.5 -21t-23.5 -9h-116q-14 0 -23.5 9t-9.5 21v688h-121q-13 0 -21.5 9.5t-8.5 23.5v102q0 14 8.5 24t21.5 10h154h116h4q12 0 20 -10z" />
    <glyph glyph-name="two" unicode="2" horiz-adv-x="715" 
d="M666 153q12 0 20.5 -9.5t8.5 -23.5v-87q0 -14 -8.5 -23.5t-20.5 -9.5h-23h-568h-6q-13 0 -21.5 11t-8.5 25v87q0 10 1 18.5t9 12.5l270 236l83 74t55 57t30 50t9 52q0 26 -6.5 45t-23.5 31.5t-45.5 18.5t-73.5 6q-58 0 -118 -13t-102 -32l-12 -7q-10 -6 -21 -2t-18 15
l-51 89q-5 9 -4.5 19.5t7.5 17.5l-1 1q35 18 69 32t73.5 23t87 13.5t109.5 4.5q156 0 235 -56t79 -188q0 -50 -12.5 -91.5t-37.5 -80t-64 -77.5t-91 -84l-179 -154h4l366 -1v0z" />
    <glyph glyph-name="three" unicode="3" horiz-adv-x="735" 
d="M589 485q33 -9 57 -24.5t39 -41.5t22.5 -64t7.5 -92q0 -79 -25 -130.5t-69 -81.5t-106 -41.5t-135 -11.5q-107 0 -186.5 18t-148.5 55l-9 4q-10 5 -14 16t0 20q1 2 1.5 2.5t1.5 2.5l63 91q7 9 19.5 11t23.5 -3l23 -12q53 -25 105.5 -38.5t111.5 -13.5q44 0 75.5 5.5
t51.5 20t29.5 38.5t9.5 62q0 33 -8 55.5t-28.5 37t-55 20.5t-86.5 6h-85h-19h-16q-14 0 -22.5 6.5t-8.5 22.5v64v33q0 28 30 28h10h109q44 0 73.5 4.5t47.5 15.5t26 29.5t8 46.5q0 26 -7 43t-23.5 27.5t-44.5 14.5t-70 4q-49 0 -101.5 -11t-94.5 -30l-13 -5q-11 -6 -22.5 -5
t-17.5 11l-62 89q-6 9 -3 22.5t15 18.5l15 7l5 2q62 27 139 42t158 15q75 0 132 -10.5t96 -35t59 -64.5t20 -98q0 -45 -6 -78t-19 -56.5t-32 -38.5t-46 -25z" />
    <glyph glyph-name="four" unicode="4" horiz-adv-x="804" 
d="M784 211q0 -28 -31 -28h-14h-6h-17h-72v-134v-1v-16q0 -14 -5.5 -23t-21.5 -8l-116 -1q-30 0 -30 32l1 36v115h-452v140l349 507l4 5l12 18q11 14 27.5 24t31.5 10h139q28 0 6 -29l-363 -524h248v123v1v16v1q0 14 7 23t23 8l110 1q30 0 30 -32v-141h104v-1h4
q14 0 23 -6.5t9 -22.5v-93z" />
    <glyph glyph-name="five" unicode="5" horiz-adv-x="744" 
d="M410 598q63 0 119.5 -10t100 -40.5t69 -88.5t25.5 -154q0 -98 -27 -157.5t-75 -92.5t-114 -44t-145 -11q-111 0 -187.5 22t-132.5 54l-5 2q-2 2 -4 2.5t-4 2.5v1h-1q-5 5 -7.5 12t0.5 15q0 1 2 5l58 96q15 21 36 11l11 -6q49 -26 102.5 -45t126.5 -19q37 0 70 4.5
t57.5 20t39 44.5t14.5 77q0 47 -13.5 76t-37 44.5t-55.5 20.5t-69 5q-53 0 -90.5 -7t-71.5 -23l-153 52l1 355h-1v19v16q0 14 7 23t22 9h110h7h411h2h16q14 0 23 -7t9 -23v-100q0 -29 -31 -29h-14h-22h-362l-3 -161q60 29 186 29z" />
    <glyph glyph-name="six" unicode="6" horiz-adv-x="779" 
d="M465 607q84 0 140.5 -20t90.5 -57.5t48.5 -92t14.5 -124.5q0 -74 -18.5 -131.5t-60.5 -98t-110 -61.5t-167 -21q-103 0 -176 24.5t-119 73.5t-67 122.5t-21 170.5q0 90 9.5 161.5t33 127t63 95t99.5 65t142 37.5t191 12h45h5q14 0 23 -7t9 -23v-100q0 -29 -31 -29h-15
h-21h-21q-81 0 -138 -8t-95 -22t-59.5 -33.5t-33.5 -42t-16 -47.5t-6 -51q30 41 92.5 60.5t168.5 19.5zM405 153q54 0 88 11t53 31t25.5 48t6.5 63q0 36 -8 64.5t-27.5 48.5t-52.5 31t-84 11q-96 0 -145 -35.5t-49 -109.5q0 -89 48 -126t145 -37z" />
    <glyph glyph-name="seven" unicode="7" horiz-adv-x="699" 
d="M679 890v-136l-279 -650l-19 -48l-2 -5l-8 -18q-7 -16 -17.5 -24.5t-37.5 -8.5l-131 -1q-29 0 -14 29l47 109l256 593h-416h-6q-14 0 -23 7t-9 23v101q0 29 32 29h14h5h16h592z" />
    <glyph glyph-name="eight" unicode="8" horiz-adv-x="785" 
d="M20 259q0 38 6.5 74t22.5 66t42.5 53t66.5 36q-34 13 -55.5 32.5t-33.5 43t-16 50.5t-4 57q0 43 14.5 83t52.5 71t104.5 49t170.5 18q105 0 171.5 -18.5t104.5 -49t52.5 -70.5t14.5 -83q0 -30 -4.5 -57.5t-16.5 -51.5t-33.5 -43t-55.5 -31q41 -13 68 -36t43.5 -53t23 -66
t6.5 -74q0 -54 -18.5 -101.5t-62 -83.5t-115.5 -56.5t-178 -20.5t-177 20.5t-114 56.5t-61.5 83.5t-18.5 101.5zM580 274q0 31 -10 55t-32.5 41t-58.5 26t-88 9t-87.5 -9t-57.5 -26t-31.5 -41t-9.5 -55q0 -30 9.5 -54.5t31.5 -41.5t57.5 -26t87.5 -9q104 0 146.5 35t42.5 96
zM556 646q0 23 -8 41.5t-26.5 31.5t-50.5 20t-80 7t-79.5 -7t-50.5 -20t-26.5 -31.5t-7.5 -41.5q0 -24 7.5 -42.5t26.5 -32t50.5 -20.5t79.5 -7t80 7t50.5 20.5t26.5 32t8 42.5z" />
    <glyph glyph-name="nine" unicode="9" horiz-adv-x="784" 
d="M139 12v122l12 20h77q124 0 193.5 18t103 47t42.5 66t12 75q-31 -41 -94 -60t-169 -19q-85 0 -142 21t-91 60t-48.5 93.5t-14.5 121.5q0 74 18.5 132.5t61 99.5t111 63t167.5 22q104 0 177 -24.5t119.5 -74t68 -123t21.5 -171.5q0 -136 -23 -231.5t-83 -155.5
t-165.5 -87.5t-270.5 -27.5h-53zM570 569q0 89 -48 126.5t-144 37.5q-55 0 -89.5 -10.5t-53.5 -30.5t-26 -48.5t-7 -64.5t8 -64.5t28 -48.5t53.5 -30.5t84.5 -10.5q96 0 145 35t49 109z" />
    <glyph glyph-name="ampersand" unicode="&#x26;" horiz-adv-x="1350" 
d="M103 302q-5 0 -11 -2q-3 -1 -5.5 -2t-4.5 -2q-2 -2 -3 -3.5t-3 -3.5q-2 -6 -2 -9q0 -5 2 -9q2 -3 6 -7q6 -4 10 -5q3 -1 11 -1v-1q4 0 4 -3v-12q0 -1 -0.5 -1.5t-0.5 -1.5q-1 0 -1.5 -0.5t-1.5 -0.5h-1q-12 0 -21 3q-5 2 -9 4l-8 4q-8 8 -10 13t-3 9t-1 9q0 8 4 18
q3 8 11 13q3 3 7 4.5l9 3.5q10 3 22 3q2 0 3 -1q0 -1 0.5 -1t0.5 -1v-14l-1 -2q-1 -1 -3 -1zM119 280q0 13 2 18q3 8 8 13q3 3 6.5 4.5l8.5 3.5q9 3 22 3t22 -3t14 -8q5 -4 9 -13q2 -10 2 -18t-2 -18q-4 -9 -9 -13q-5 -5 -14 -8t-22 -3t-22 3q-11 3 -15 8q-5 5 -8 13
q-2 5 -2 18zM188 279q0 7 -1 10q-2 4 -4 7q-1 3 -6 5q-6 2 -11 2t-11 -2q-3 -1 -7 -5q-1 -2 -2 -3.5t-1 -3.5q-1 -3 -1 -10q0 -6 1 -9q0 -2 1 -3.5t2 -3.5q4 -4 7 -5q6 -2 11 -2t11 2q5 2 6 5q2 2 4 7q1 3 1 9zM225 318l1 2q1 1 3 1h17h3q1 0 1 -2v-1q6 2 11 2q4 1 13 1h12
t10 -2t8 -4l6 -4q5 -5 8 -13t3 -18q0 -11 -3 -18q-3 -8 -8 -13q-7 -5 -15 -8t-21 -3q-4 0 -7 0.5t-6 0.5q-8 2 -11 3v-32l-1 -2q-1 -1 -3 -1h-17q-2 0 -3 1t-1 2v11v91v6zM274 303q-5 0 -11 -2q-5 -3 -6 -4q-3 -3 -4 -7q-1 -3 -1 -9q0 -7 1 -10q1 -2 1.5 -3.5t2.5 -3.5
q1 -2 2.5 -2.5t3.5 -2.5q3 -1 11 -1t11 1q2 2 3.5 2.5t2.5 2.5q2 2 2.5 3.5t1.5 3.5q0 2 0.5 4.5t0.5 5.5q0 2 -0.5 4.5t-0.5 4.5q-2 4 -4 7q-1 1 -6 4q-6 2 -11 2zM333 318v3q1 1 3 1h16h1q2 0 3 -1l2 -2l6 -16l13 -34l18 50l2 2q1 1 3 1h2h13h1q2 0 3 -1v-3l-32 -87
q-2 -2 -2.5 -4.5t-2.5 -4.5q-1 -4 -6 -7q-4 -4 -9 -5q-3 -2 -14 -2h-3h-3q-2 0 -3 1q0 1 -0.5 1t-0.5 1v14q0 1 0.5 1t0.5 1q1 1 3 1h4q4 0 5 1q1 0 2 0.5t2 0.5q0 1 2 3q0 1 0.5 1.5t0.5 1.5l1 4zM481 321q2 0 2 -3v-14v-1q0 -1 -2 -3q-1 -1 -2 -1h-3q-8 0 -10 -1
q-3 -1 -6 -4t-3 -6q-1 -2 -1 -8v-23v-16q0 -2 -1 -2q-1 -1 -3 -1h-17q-2 0 -3 1t-1 2v16v51v10q0 1 0.5 1.5t0.5 1.5q1 1 3 1h17q2 0 3 -1t1 -3v-5q1 2 4 5q4 2 6 2q2 1 6 1q2 1 6 1h1q1 0 2 -1zM520 335q0 -2 -2 -2q0 -1 -2 -1h-17q-2 0 -3 1q-1 0 -1 2v16q0 1 1 2t3 1h17
q2 0 2 -1l2 -2v-16zM520 242q0 -1 -2 -3q-1 -1 -2 -1h-17q-1 0 -1.5 0.5t-1.5 0.5q-1 1 -1 3v77q0 1 1 2t3 1h17q2 0 2 -1l2 -2v-77zM576 258q6 0 11 -0.5t10 -0.5q6 -1 12 -5q5 -1 7 -7t2 -11q0 -8 -3 -12q-4 -6 -8 -8q-5 -3 -14 -4q-10 -2 -19 -2q-6 0 -11 0.5t-9 0.5
q-10 2 -13 4q-5 2 -7 6q-2 3 -2 10t3 12q4 4 12 6q-3 3 -4 5t-1 6q0 5 1 7q2 5 4 6q-6 3 -8 8q-3 6 -3 12q0 13 9 21q8 7 29 7h2h2l11 2h1h1l20 7q4 0 4 -2v-13q0 -1 -2 -3q0 -1 -2 -1h-2h-6q3 -2 7 -6q2 -6 2 -12q0 -13 -9 -19t-29 -6h-6h-5q0 -1 -0.5 -1t-0.5 -1v-2
q0 -2 1 -2q0 -1 2 -1q1 -1 4 -1h7zM575 224h10q2 1 3 1t3 1l3 3q1 1 1 4q0 2 -1 4q-2 2 -3 2q-4 2 -7 2h-9h-11l-6 -2q-3 -2 -3 -3q-1 -2 -1 -4q0 -3 1 -4q2 -2 3 -2q2 -1 3 -1t3 -1h11zM574 302q-9 0 -13 -3q-3 -3 -3 -8q0 -3 1 -4q0 -2 2 -4q1 0 5 -2h8q7 0 13 2q3 3 3 8
t-4 8q-3 3 -12 3zM715 257v-15q0 -2 -1 -3t-3 -1h-15q-2 0 -3 1t-1 3v1v39q0 5 -1 8q-2 4 -3 5q-2 2 -6 4q-3 1 -10 1t-9 -2q-4 -1 -6 -5t-3 -7q0 -4 -1 -6v-22v-1h1v-15q0 -1 -2 -3q-1 -1 -3 -1h-15q-2 0 -3 1t-1 3v1v14v78v15v1q0 2 1 2q1 1 3 1h15h3q1 -1 1 -3v-16v-18
q2 2 9 4q5 1 19 1h9t7 -2q8 -4 11 -7q2 -3 6 -11q1 -5 1 -15v-30zM783 257q1 -1 1 -3v-12q0 -2 -1 -3t-2 -1h-1h-10h-2h-1q-6 0 -12 2q-4 1 -8 5q-4 3 -5 8q0 2 -0.5 5t-0.5 6v46h-10q-2 0 -2 1q-2 2 -2 3v1v11q0 1 2 3q1 1 2 1h11v20q0 1 0.5 1.5t0.5 1.5q1 0 1.5 0.5
t1.5 0.5h14q1 0 1.5 -0.5t1.5 -0.5q1 -1 1 -3v-20h16q1 0 3 -2q1 -1 1 -2v-12q0 -1 -0.5 -1.5t-0.5 -1.5q-1 -1 -3 -1h-16v-43v-3q0 -1 0.5 -1.5t0.5 -1.5q2 -2 3 -2q1 -1 4 -1h8q1 0 1 -0.5t1 -0.5h1zM898 279q0 -16 -10.5 -26.5t-25.5 -10.5t-25.5 10.5t-10.5 26.5
q0 15 10.5 26t25.5 11t25.5 -11t10.5 -26zM832 279q0 -14 8.5 -23t21.5 -9q13 -1 21.5 8.5t8.5 23.5t-8.5 23t-21.5 9t-21.5 -9t-8.5 -23zM877 293q-2 0 -4.5 1t-7.5 1q-17 0 -17 -16q0 -17 17 -17q9 0 12 3l2 -5q-5 -4 -15 -4q-11 0 -16.5 6.5t-5.5 15.5q0 11 7 16.5
t16 5.5q10 0 13 -3zM992 255q1 0 1 -3v-10q0 -2 -1 -3t-2 -1h-3h-68h-1q-1 0 -1.5 0.5t-1.5 0.5q0 1 -0.5 1.5t-0.5 1.5v11v2l2 2l32 28q4 3 10 9l3.5 3.5l3.5 3.5l3 6q1 2 1 6t-1 5q0 2 -2 4q-4 2 -6 2q-2 1 -9 1q-4 0 -14 -2l-12 -3l-2 -1q0 -1 -2 -1l-2 2l-6 11
q-1 1 -1 2q0 2 1 2v1q2 1 4 1.5t4 1.5l9 3q2 1 5 1t5 1h14q17 0 28 -6q9 -8 9 -23q0 -8 -1 -11q-1 -2 -2 -4.5t-3 -5.5q-4 -6 -7 -9q-4 -3 -11 -10l-22 -18h1l44 -1q1 0 2 -1zM1005 291q0 13 3 24q1 9 7 16q3 4 6.5 6.5t7.5 4.5q9 3 22 3q12 0 21 -3q4 -2 7.5 -4.5t6.5 -6.5
q5 -6 8 -16q1 -5 1.5 -11t0.5 -13q0 -6 -0.5 -12t-1.5 -11q-3 -10 -8 -16q-3 -4 -6.5 -6.5t-7.5 -4.5q-9 -3 -21 -3q-13 0 -22 3q-4 2 -7.5 4.5t-6.5 6.5q-6 7 -7 16q-3 10 -3 23zM1073 291q0 11 -1 15q0 3 -1 6t-2 5q-4 4 -7 6q-6 2 -11 2q-6 0 -12 -2q-3 -2 -7 -6
q-1 -3 -3 -11q-1 -4 -1 -15q0 -10 1 -14q2 -8 3 -11q3 -4 7 -7q6 -2 12 -2q5 0 11 2q4 3 7 7q1 2 2 5t1 6q1 4 1 14zM1108 291q0 7 0.5 13t1.5 11q3 10 8 16q3 4 6.5 6.5t7.5 4.5q9 3 22 3q12 0 21 -3q4 -2 7.5 -4.5t6.5 -6.5q5 -6 8 -16q1 -5 1.5 -11t0.5 -13
q0 -6 -0.5 -12t-1.5 -11q-3 -10 -8 -16q-3 -4 -6.5 -6.5t-7.5 -4.5q-9 -3 -21 -3q-13 0 -22 3q-4 2 -7.5 4.5t-6.5 6.5q-5 6 -8 16q-1 5 -1.5 11t-0.5 12zM1176 291q0 11 -1 15q0 3 -1 6t-2 5q-4 4 -7 6q-6 2 -11 2q-6 0 -12 -2q-3 -2 -7 -6q-1 -3 -3 -11q-1 -4 -1 -15
q0 -10 1 -14q2 -8 3 -11q3 -4 7 -7q6 -2 12 -2q5 0 11 2q4 3 7 7q1 2 2 5t1 6q1 4 1 14zM1225 240v14l2 3h9h13.5t9.5 2q7 1 13 5q2 2 3 4l2 4q0 2 0.5 4.5t0.5 4.5q-2 -4 -11 -7q-10 -2 -20 -2q-8 0 -18 2q-8 4 -10 8q-5 5 -6 11q-2 8 -2 14q0 8 2 16q3 9 8 12q5 5 13 8
q10 2 20 2q12 0 21 -3q10 -4 15 -8q5 -7 8 -15q1 -5 1.5 -10t0.5 -11q0 -8 -0.5 -15t-1.5 -13q-2 -9 -10 -18q-8 -8 -20 -11q-14 -3 -33 -3h-6zM1277 306q0 11 -6 16q-5 4 -17 4q-8 0 -11 -1q-5 -2 -6 -4q-3 -2 -3 -6q-1 -2 -1 -7q0 -6 1 -8q0 -2 1 -3t2 -3q2 -3 7 -4
q2 0 4.5 -0.5t5.5 -0.5q12 0 17 4q6 4 6 13zM202 157v-2l-27 -76q0 -2 -2 -4h-3h-17h-3q-3 1 -3 4l-18 45l-17 -45q0 -2 -2 -4h-3h-17h-3q-2 2 -3 4l-28 75v1q-2 2 0 2q0 1 2 1h1h16h1q2 0 3 -1q2 0 2 -2l6 -15v-1l11 -34l18 50l2 2q1 1 4 1h2h11h1h1q2 0 3 -1q1 0 3 -2
l5 -15v-1l13 -34l17 50q0 2 2 2q1 1 3 1h2h13h1q2 0 3 -1zM361 157v-2l-27 -76q0 -2 -2 -4h-3h-17h-4q-2 2 -2 4l-18 45l-17 -45q0 -2 -2 -4h-3h-17h-3q-3 1 -3 4l-29 75h1l-1 1q0 2 1 2q0 1 2 1h1h15h1q3 0 4 -1l2 -2l5 -15q1 0 1 -1l11 -34l18 50l2 2q1 1 4 1h1h12h1h1
q2 0 3 -1q2 0 2 -2l6 -15v-1l13 -34l17 50q0 2 2 2q1 1 3 1h2h12h2q2 0 3 -1zM519 157q1 0 1 -2l-27 -76q-2 -3 -3 -4h-3h-16h-4q-2 2 -3 4l-17 45l-17 -45q0 -2 -2 -4h-3h-17h-3q-3 1 -3 4l-29 75v1q0 2 1 2q0 1 2 1h1h15h1q3 0 4 -1l2 -2l5 -15v-1l12 -34l18 50q0 2 2 2
q1 1 3 1h1h1h11h2h1q2 0 3 -1q2 0 2 -2l6 -15v-1l13 -34l17 50q0 2 2 2q1 1 3 1h2h12h2q2 0 2 -1zM536 96q0 2 1 2q2 2 3 2h19q4 0 4 -4v-18q0 -2 -1 -3t-2 -1h-20q-1 0 -1.5 0.5t-1.5 0.5q-1 1 -1 3v18zM623 74q-7 0 -10 1q-6 0 -9 1l-9 3q-2 1 -4 1.5t-4 2.5h-1l-2 2
q0 2 1 3l6 12l1 1h2l4 -2q8 -4 13 -5q4 -1 14 -1h8q2 0 3 0.5t2 0.5l2 2q1 1 1 3q0 3 -1 3q0 2 -2 2q-1 1 -5 1q-2 1 -8 1l-15 3q-8 2 -13 4q-6 4 -8 7q-3 4 -3 13q0 5 2 9q1 4 5 8q5 3 13 6q4 1 8.5 1.5t10.5 0.5q9 0 19 -2q5 -1 8.5 -2t7.5 -3l2 -1q0 -2 -1 -3l-5 -11
q0 -2 -2 -2q0 -2 -2 0l-4 1q-3 2 -5.5 2t-5.5 1h-11h-8q-2 0 -2.5 -0.5t-1.5 -0.5q-1 -1 -1.5 -1t-1.5 -1v-2v-3q2 -2 3 -2q1 -1 4 -1q2 -1 8 -1q4 -1 8 -1.5t7 -1.5q4 0 7 -1l6 -2q5 -3 8 -7q3 -5 3 -12q0 -9 -1 -12q-1 -5 -6 -8q-4 -3 -13 -5q-5 -1 -10 -1.5t-12 -0.5z
M677 116q0 10 3 18q4 10 8 13q3 3 6.5 4.5l8.5 3.5q9 3 22 3q12 0 21 -3q10 -4 15 -8q6 -5 8 -13q3 -8 3 -18q0 -11 -3 -18q-2 -8 -8 -13q-5 -5 -15 -8q-9 -3 -21 -3q-13 0 -22 3q-11 3 -15 8q-4 3 -8 13q-3 7 -3 18zM747 115q0 3 -0.5 5.5t-0.5 4.5q-2 4 -4 7q-4 4 -7 5
q-6 2 -10 2q-5 0 -11 -2q-3 -1 -7 -5q-3 -3 -3 -7q-1 -3 -1 -10q0 -6 1 -9q0 -4 3 -7q4 -4 7 -5q6 -2 11 -2q4 0 10 2q3 1 7 5q2 2 4 7q0 2 0.5 4.5t0.5 4.5zM784 116q0 8 2 18q4 9 9 13q5 5 14 8t22 3t22 -3q10 -4 15 -8q5 -5 8 -13q2 -5 2 -18t-2 -18q-3 -8 -8 -13t-15 -8
q-9 -3 -22 -3t-22 3t-14 8q-5 4 -9 13q-2 10 -2 18zM853 115q0 7 -1 10q0 2 -1 3.5t-2 3.5q-4 4 -7 5q-6 2 -11 2t-11 -2q-5 -2 -6 -5q-3 -3 -4 -7q0 -2 -0.5 -4.5t-0.5 -5.5q0 -2 0.5 -4.5t0.5 -4.5q1 -5 4 -7q1 -3 6 -5q6 -2 11 -2t11 2q3 1 7 5q1 2 2 3.5t1 3.5q1 3 1 9z
M923 95q1 0 1 -2v-15q0 -2 -1 -3t-3 -1h-9h-16q-2 0 -3 1q-2 2 -2 3v9v90v10l2 2q0 1 2 1h17q2 0 3 -1l1 -2v-18v-65q0 -5 1 -6q0 -2 3 -2h1q2 0 3 -1zM961 171q0 -2 -1 -2q-1 -1 -3 -1h-17q-2 0 -3 1q-1 0 -1 2v16q0 1 1 2t3 1h17q2 0 3 -1t1 -2v-16zM961 78q0 -2 -1 -3
q-1 0 -1.5 -0.5t-1.5 -0.5h-17q-1 0 -1.5 0.5t-1.5 0.5q-1 1 -1 3v77q0 1 1 2t3 1h17q2 0 3 -1t1 -2v-77zM1070 78q0 -2 -1 -3q-1 0 -1.5 -0.5t-1.5 -0.5h-17h-3q0 1 -0.5 1t-0.5 1v2q-3 -1 -11 -3q-4 -1 -14 -1q-12 0 -21 3q-11 3 -15 8q-4 3 -8 13q-2 5 -2 18t2 18
q3 8 8 13q7 7 15 8q9 3 22 3q9 0 13 -1q6 0 11 -3v33l1 2q1 1 3 1h17q2 0 3 -1q1 0 1 -2v-11v-92v-6zM1016 93q14 0 20 6q7 6 7 16q0 7 -1 10q-2 4 -4 7q-1 3 -6 5q-6 2 -11 2q-4 0 -12 -2q-5 -2 -8 -5q-4 -4 -5 -7q-2 -6 -2 -10q0 -2 0.5 -4.5t0.5 -4.5q1 -5 4 -7
q2 -2 3.5 -2.5t3.5 -2.5q3 -1 10 -1zM1097 96q0 2 1 2q2 2 3 2h19q4 0 4 -4v-18q0 -2 -1 -3t-2 -1h-20q-1 0 -1.5 0.5t-1.5 0.5q-1 1 -1 3v18zM1175 171q0 -2 -1 -2q-1 -1 -3 -1h-17q-2 0 -3 1q-1 0 -1 2v16q0 1 1 2t3 1h17q2 0 3 -1t1 -2v-16zM1175 78q0 -2 -1 -3
q-1 0 -1.5 -0.5t-1.5 -0.5h-17q-1 0 -1.5 0.5t-1.5 0.5q-1 1 -1 3v77q0 1 1 2t3 1h17q2 0 3 -1t1 -2v-77zM1243 93q1 -1 1 -3v-12q0 -2 -1 -3q-1 0 -1 -0.5t-1 -0.5h-1h-10h-2h-1q-5 0 -13 2q-5 1 -8 5q-2 2 -4 8q-1 3 -1 11v45h-10q-2 0 -3 1t-1 3v1v11q0 2 1 3
q1 0 1.5 0.5t1.5 0.5h11v20q0 2 1 3q1 0 1.5 0.5t1.5 0.5h14q1 0 1.5 -0.5t1.5 -0.5q0 -1 0.5 -1.5t0.5 -1.5v-20h16q2 0 2 -2q1 0 1 -2v-12q0 -2 -1 -3q0 -1 -2 -1h-16v-42v-3q0 -2 1 -3l2 -2q1 -1 5 -1h8q1 0 1.5 -0.5t1.5 -0.5z" />
  </font>
</defs>
</svg>
