<svg xmlns="http://www.w3.org/2000/svg" viewBox="0 0 222.37 54.37"><path d="M40.13,9.54C47.06,7.43,53.79,5.1,60.68,3.35,70.53.86,80.53-.95,90.78.53a14.25,14.25,0,0,1,4.46,1.3c4.17,2.17,5.41,6.45,2.65,11.56-2.45,4.57-5.78,8.67-8.71,13-3.25,4.78-6.84,9.36-9.61,14.4-3.15,5.76-1.62,8.37,5,7.83a160.92,160.92,0,0,0,23.69-3.87C136.75,38,165.16,30.68,193.69,24c8.1-1.9,16.49-2.52,24.76-3.65a19.59,19.59,0,0,1,3.8.23l.12.88c-1.5.55-3,1.23-4.52,1.63q-35.26,9.2-70.56,18.29c-15.34,3.93-30.65,8-46.11,11.36a73.92,73.92,0,0,1-19.85,1.53C74.08,53.83,70.92,48.7,73.79,42c2.44-5.74,6.27-10.93,9.8-16.15,3-4.51,6.8-8.54,9.74-13.1s1.76-7.57-3.71-7.5A158.12,158.12,0,0,0,65.46,7.56c-6,1-11.81,3.22-17.67,5-2.68.83-5.69,1.25-6.65,4.73-.2.71-1.51,1.25-2.41,1.59-6.5,2.49-13.12,4.68-19.51,7.42-4.9,2.1-9.47,5-14.31,7.25-1.42.67-3.26.44-4.91.62.64-1.73.78-4,2-5.1,5.38-4.67,11-9,16.67-13.39,4-3.06,8.14-5.86,12.19-8.82s6-2.67,8.56,1.67A11.14,11.14,0,0,0,40.13,9.54Z"/></svg>