<svg xmlns="http://www.w3.org/2000/svg" viewBox="0 0 305.15 116.02"><path d="M68.78,18.35C58.1,24.51,45.76,26,34.71,30c0,7.25.17,14.3-.09,21.33A27.77,27.77,0,0,1,32.74,59a2.88,2.88,0,0,1-2.22,1.59c-.61,0-1.63-1.24-1.7-2-.49-5-.95-10.11-1.06-15.17-.08-3.73.38-7.48.64-11.81L9.72,37.51A28.92,28.92,0,0,1,4,39.21c-1.27.12-2.65-.81-4-1.27.73-1.2,1.2-3,2.24-3.47a192.17,192.17,0,0,1,19.69-7.26c12.52-3.53,25.17-6.61,37.82-9.64,2.81-.67,5.85-.37,8.78-.52C68.61,17.48,68.7,17.92,68.78,18.35Z"/><path d="M228,45.28c-1.56-1.44-2.59-2.57-3.78-3.48a89.08,89.08,0,0,0-25-13.25c-7-2.45-8-6.95-2.73-12.25,4.8-4.83,10.18-8.39,17.58-6.38,3.64,1,5.87,3.49,7.6,6.56.31.56.35,1.82,0,2.06a2.89,2.89,0,0,1-2.31.26,9.31,9.31,0,0,1-2.82-1.71c-4.24-3.5-8.41-3.66-12.67-.19-1.85,1.51-3.44,3.35-5.62,5.5,4,1.52,7.34,2.74,10.63,4a62.38,62.38,0,0,1,20.33,13.22c5.09,4.85,4.15,9.34-2.48,11.39-8.13,2.5-16.29,2.45-24.17-1.13-2.83-1.28-5.43-3-6.91-7a46.66,46.66,0,0,1,5.79,1.4c7.34,2.82,14.8,4.16,22.59,2.33C225.2,46.36,226.29,45.87,228,45.28Z"/><path d="M220.45,105.78h-13c-.22,1.9-.14,4-.77,5.77-.47,1.35-1.86,2.39-2.84,3.57-1-1.16-2.9-2.3-2.93-3.48-.1-4.62.35-9.25.68-13.87a23.8,23.8,0,0,1,.76-4.91c.3-1,1.33-2.7,1.7-2.61,1.24.27,3,1,3.32,1.94.72,2.27.7,4.76,1,7.52l12.07.61c.18-2.89.23-5.74.62-8.53.14-1,1.13-1.87,1.73-2.8.9.72,2.37,1.28,2.61,2.17a33,33,0,0,1-.42,19.66c-.27.79-1.3,1.31-2,2-.64-.72-1.59-1.35-1.84-2.18A31.83,31.83,0,0,1,220.45,105.78Z"/><path d="M264.79,48.33a38.22,38.22,0,0,1-2.48,6.07c-.6,1-2.18,1.35-3.31,2-.5-1.21-1.63-2.59-1.38-3.61,1.22-4.81,2.74-9.56,4.36-14.26a3.19,3.19,0,0,1,2.4-1.8,5,5,0,0,1,3.15,1.85,60.44,60.44,0,0,1,3.71,6.33c1.22-2.34,2-4.08,3-5.65,2-3.18,5.32-3.66,7.33-.57a57.33,57.33,0,0,1,5.27,11.4c.71,1.93-1.68,3.45-3.73,2.31a12.8,12.8,0,0,1-3.46-3.46,25.22,25.22,0,0,1-1.94-3.55C273.48,52,271.37,52.42,264.79,48.33Z"/><path d="M31.55,96.83l9.25,1.59.06,1.29-9,2.16c0,2.91.13,6.1-.05,9.27-.11,2-.49,4.24-3.1,4.47-2.76.24-3.77-1.94-4-4-.82-8.37-1.48-16.77-1.9-25.17-.05-1.07,1.56-2.91,2.67-3.14a4.51,4.51,0,0,1,3.68,1.88c.95,1.51,1.2,3.52,1.54,5.36C31.14,92.64,31.31,94.84,31.55,96.83Z"/><path d="M67.84,51.5c-1.41.19-2.71.42-4,.51-2.41.18-3.86,1.27-4,3.82A4.43,4.43,0,0,1,59.13,58c-.55.73-1.51,1.78-2.15,1.69-.88-.13-2.34-1.21-2.33-1.86.09-5.61.39-11.22.8-16.82,0-.57,1.36-1.59,1.86-1.47a3.7,3.7,0,0,1,2.43,1.78A52.43,52.43,0,0,1,61.18,48h6.44a36.37,36.37,0,0,1,.86-5.7A3.86,3.86,0,0,1,70.79,40c.55-.15,2.12,1.15,2.18,1.89.36,4.37.53,8.76.48,13.15,0,.79-1.32,1.56-2,2.35A12.7,12.7,0,0,1,68.94,55,15.16,15.16,0,0,1,67.84,51.5Z"/><path d="M71.82,114.51c-4.58.54-9.15,1.25-13.74,1.51-1.12.06-2.73-1.14-3.41-2.2-2-3.17-.06-14.65,2.92-16.75a12.52,12.52,0,0,1,5.5-2c4.6-.59,9.26-1.19,13.83.69-2,2.65-4.09,3.18-17.45,4.48-.06,1.1-.13,2.25-.2,3.28,3.07.52,5.89,1,8.7,1.52.47.09.85.62,1.51,1.12-3,3.07-6.72,2-10,2.62-1.49,4.16-.86,4.94,3.39,4.68,3-.17,5.93,0,8.89,0C71.75,113.77,71.78,114.14,71.82,114.51Z"/><path d="M246.68,49.05a34.87,34.87,0,0,0-4.63,1.09,31.23,31.23,0,0,0-3.43,2c-.81.43-1.69.71-2.54,1.06-.31-1-1.18-2.17-.86-2.82,2.44-5.11,4.95-10.2,7.78-15.1,1.21-2.11,3.64-1.33,4.37.33,2.58,6,4.8,12.09,7,18.23.26.74-.68,1.9-1.06,2.87-1.05-.46-2.49-.65-3.08-1.45A56.25,56.25,0,0,1,246.68,49.05Zm-.76-2.55-2.51-6.61-2.31,6Z"/><path d="M100.59,95.38c4.51,3.52,9,6.51,12.9,10.21s3.09,6.57-2.26,7.86a38.94,38.94,0,0,1-10.18,1.14c-3.88-.12-5.33-2.11-4.8-5.67,5.13,3.16,10.4,2.36,15.67,1l.47-1c-4.17-2.82-8.32-5.66-12.52-8.43-1.83-1.21-4.35-2-3.94-4.77.45-3,2.8-4.56,5.59-5a16.34,16.34,0,0,1,6.5.32c.88.25,1.28,2.19,1.9,3.36a12.33,12.33,0,0,1-2.94-.27A6.09,6.09,0,0,0,100.59,95.38Z"/><path d="M138.22,110.51c-.51.78-.95,2.24-1.8,2.54a4,4,0,0,1-3.19-.92c-1.59-1.38-2-4.44-5.34-2.89-1.91.89-4.82-.73-6,2.39-.11.29-1.29.49-1.73.27s-1-1.17-.9-1.57c1.75-5.32,3.53-10.63,5.61-15.82.2-.5,3-.73,3.79-.11C133.84,98.35,136.67,103.79,138.22,110.51Zm-11.59-10.18-.9-.2c-.53,1.91-1,3.81-1.65,6h5.42Z"/><path d="M162.51,109.34c1.73.17,3.48.23,5.19.51,2.4.39,3.43-1,2.73-2.82a20.66,20.66,0,0,0-4.07-6.18c-1.78-1.95-4.64-3.42-3.44-6.55,1.29-3.34,4.54-3,7.46-2.91a3.42,3.42,0,0,1,1.63.19c1.33.92,3.56,1.93,3.61,3,.13,2.6-2.25,1.55-3.77,1.59-.44,0-.88.06-1.23.09,1.67,2.45,3.62,4.73,4.9,7.34a7.62,7.62,0,0,1-11,10c-1.14-.73-1.87-2.09-2.79-3.16Z"/><path d="M151,100.65a47.54,47.54,0,0,1,1.86-6.31c.48-1,1.69-1.67,2.57-2.5.67,1,2.08,2.22,1.89,3-1.48,6.21-3.23,12.37-5,18.5a2.41,2.41,0,0,1-2,1.18,2.49,2.49,0,0,1-1.41-2c1.16-5.13-2.05-7.75-5.34-10.75-1.66-1.51-2.45-4.18-3.14-6.48a3.87,3.87,0,0,1,1.22-3.29c.45-.38,2.36.27,3.06,1C146.66,95.19,148.45,97.59,151,100.65Z"/><path d="M296.11,36.46c0-3.53-.37-7.11.06-10.59.83-6.73,2.07-13.41,3.23-20.09a11.94,11.94,0,0,1,1.41-4.07c.48-.79,1.65-1.15,2.51-1.71.64,1,1.87,2.09,1.83,3.09a80.4,80.4,0,0,1-1.23,12.61c-1.22,6-2.93,11.85-4.56,17.73a15,15,0,0,1-1.87,3.27Z"/><path d="M161.31,43.28A42.41,42.41,0,0,1,165,49.2a5.25,5.25,0,0,1-2.42,7.1c-2.77,1.29-8.44.32-9.63-1.74C152,52.93,152.68,52,154.5,52s3.84,0,6,0c-.73-3.32-2.83-4.68-5.56-5.31-1.08-.25-2.32-.1-3.26-.58s-2.25-1.47-2.37-2.37c-.14-1.08.5-3,1.34-3.34a29.12,29.12,0,0,1,8.42-2.77c1.45-.19,3.13,1.35,4.71,2.1Z"/><path d="M48.16,114.75a5.79,5.79,0,0,1-5.46-5.69c-.56-7-.7-14.13-.69-21.2,0-1.06,1.65-2.12,2.54-3.19,1,1,2.76,2,2.84,3.11.59,7.28.84,14.59,1.13,21.9A48.66,48.66,0,0,1,48.16,114.75Z"/><path d="M94.31,58l10.27-.53c.17-.33.34-.67.5-1a33.29,33.29,0,0,0-3.4-3.52c-1.65-1.29-3.53-2.29-5.29-3.45C92.87,47.18,93,43.16,97,42c3-.9,6.49-.35,9.77-.3.42,0,1.26,1.06,1.15,1.28a2.87,2.87,0,0,1-1.51,1.5c-1.76.5-3.6.74-6.11,1.22a35.56,35.56,0,0,1,4.15,3.68,20.08,20.08,0,0,1,3.69,5.74,5.25,5.25,0,0,1-1.27,4.39C104.41,61.9,97.11,61,94.31,58Z"/><path d="M274.46,108.49a21.87,21.87,0,0,1-2.86,3.69c-5.32,4.47-14.56,4.26-19.76-.34a5.69,5.69,0,0,1-1.91-2.25,12.79,12.79,0,0,1,0-3.65c1.11.15,2.58-.1,3.27.51,4.4,4,9.51,3.86,14.79,2.89,1.93-.35,3.79-1,5.69-1.58Z"/><path d="M136.24,48a48.6,48.6,0,0,1,.95-5.63A2.64,2.64,0,0,1,139,40.77c.65-.06,1.92.73,2,1.27.55,4.18,1,8.4,1.18,12.61,0,.59-1.34,1.78-2,1.75a3.24,3.24,0,0,1-2.47-1.66A58.43,58.43,0,0,1,136.24,48Z"/><path d="M80.78,49.8c.38-2.52.59-4.84,1.13-7.08.19-.79,1.21-2,1.82-1.94a3.65,3.65,0,0,1,2.55,1.55c1.52,2.36.71,10.3-1.11,12.44-1.3,1.53-2.7,1.79-3.5-.34A26.2,26.2,0,0,1,80.78,49.8Z"/><path d="M232.58,109.75a53.56,53.56,0,0,1,1.85-5.68,2.58,2.58,0,0,1,2-1.2,3,3,0,0,1,1.91,1.48c1,1.81.07,6.32-1.65,7.62-.59.44-1.9.81-2.3.49A10.66,10.66,0,0,1,232.58,109.75Z"/><path d="M255.64,99.51c-2.64-.62-4.12-1.2-4-3.44a2.78,2.78,0,0,1,3.71-2.74c1.31.37,2.28,1.92,3.4,3Z"/><path d="M266.8,99.61l-3.05-3.8c1.13-.8,2.3-2.28,3.37-2.21s2.16,1.65,3.23,2.56Z"/><path d="M300,54.48c-.53-.9-1.61-1.92-1.44-2.67.22-1,1.42-1.75,2.21-2.61.69.78,1.93,1.55,1.95,2.35,0,1-1,2-1.52,3Z"/><path d="M236.89,94.51l-2.84,2.68c-.68-.73-2-1.58-1.88-2.15a4,4,0,0,1,2.12-2.26C234.65,92.6,235.63,93.63,236.89,94.51Z"/></svg>