<svg xmlns="http://www.w3.org/2000/svg" viewBox="0 0 389 156.79"><defs><style>.a,.c{fill:#231f20;}.a{stroke:#231f20;stroke-miterlimit:10;stroke-width:1.01px;}.b{fill:#fff;}</style></defs><rect class="a" x="0.5" y="0.5" width="388" height="120.81"/><path class="b" d="M46.48,131.76q-4.6,0-8.55-.35a62.17,62.17,0,0,1-7.66-1.16,42.3,42.3,0,0,1-7.15-2.2,62,62,0,0,1-7.06-3.4l-1-.5c-.8-.47-1.22-1-1.25-1.55a3.82,3.82,0,0,1,.75-2.15l4.9-9.91a2.57,2.57,0,0,1,1.1-1.45,2,2,0,0,1,1.6.25l3.11,1.6a52.19,52.19,0,0,0,10.75,4,45,45,0,0,0,11.86,1.3c2.61,0,4.77-.08,6.51-.25a15.11,15.11,0,0,0,4.1-.85,4.27,4.27,0,0,0,2.15-1.65,5.09,5.09,0,0,0,.65-2.75,4,4,0,0,0-.65-2.4,5,5,0,0,0-2.15-1.55,16.53,16.53,0,0,0-4.05-1.05q-2.55-.4-6.36-.9-6.9-.81-12.86-1.91a36.87,36.87,0,0,1-10.3-3.35,17.49,17.49,0,0,1-6.86-6.15q-2.5-3.9-2.5-10.41A22.65,22.65,0,0,1,17,74.81a15.2,15.2,0,0,1,4.5-6.2,25,25,0,0,1,10.31-4.8A69.51,69.51,0,0,1,48.08,62.2a99.56,99.56,0,0,1,16,1.15,52.92,52.92,0,0,1,13.16,4A2,2,0,0,1,78.56,69a4.7,4.7,0,0,1-.45,2.15L73.8,80.62a3.12,3.12,0,0,1-1.35,1.55,2.14,2.14,0,0,1-2,0l-3.3-1.2a39.49,39.49,0,0,0-9.46-2.15q-4.65-.45-9-.45a55.38,55.38,0,0,0-6.45.3,14.47,14.47,0,0,0-3.85.9,3.71,3.71,0,0,0-1.9,1.5,4.19,4.19,0,0,0-.51,2.1,4.33,4.33,0,0,0,.56,2.3,4,4,0,0,0,2,1.5,19.84,19.84,0,0,0,3.8,1c1.57.3,3.55.59,6,.85q7.11.9,13.16,1.91a38.14,38.14,0,0,1,10.51,3.15,17.17,17.17,0,0,1,7,5.85q2.49,3.7,2.5,9.91a32.58,32.58,0,0,1-1.35,9.91,13.3,13.3,0,0,1-5.16,6.9,27.08,27.08,0,0,1-10.65,4A98.93,98.93,0,0,1,46.48,131.76Z" transform="translate(-5.5 -21.35)"/><path class="b" d="M149.21,116.39a2.79,2.79,0,0,1,.95,2.16v10.3a2.57,2.57,0,0,1-.85,1.91,3.93,3.93,0,0,1-2.05,1,.62.62,0,0,1-.4.1H135.75a38.62,38.62,0,0,1-10.46-1.55,15.56,15.56,0,0,1-6.65-4,15,15,0,0,1-3.56-6.65,37.84,37.84,0,0,1-1-9.51V71.71h-8.3a2.85,2.85,0,0,1-2.21-1,3.48,3.48,0,0,1-.9-2.4V58.6a3.29,3.29,0,0,1,.9-2.35,2.84,2.84,0,0,1,2.11-1h9.3v-17a2.79,2.79,0,0,1,.95-2.16,3.45,3.45,0,0,1,2.36-.85h11.7a3.45,3.45,0,0,1,2.36.85,2.79,2.79,0,0,1,.95,2.16v17h13.41a2.74,2.74,0,0,1,2.1,1,3.48,3.48,0,0,1,.9,2.4v9.61a3.48,3.48,0,0,1-.9,2.4,2.74,2.74,0,0,1-2.1,1H133.25v35.63a30.3,30.3,0,0,0,.15,3.2,5.31,5.31,0,0,0,.85,2.45,5,5,0,0,0,1.95,1.7,9.5,9.5,0,0,0,3.55.85h7.11A3.44,3.44,0,0,1,149.21,116.39Z" transform="translate(-5.5 -21.35)"/><path class="b" d="M240,128.85a5.42,5.42,0,0,1-.31,2.11,1.51,1.51,0,0,1-1.4.8v.1h-5.5c-3.54,0-6.22-.64-8.06-1.91a15.31,15.31,0,0,1-4.75-5.8,9,9,0,0,1-3,4.3,13.21,13.21,0,0,1-5,2.2,35.49,35.49,0,0,1-6.85.86q-3.9.15-8.71.15a41.75,41.75,0,0,1-12.71-1.61,18.46,18.46,0,0,1-7.65-4.4,14.92,14.92,0,0,1-3.8-6.6,30.36,30.36,0,0,1-1.06-8.21,23.69,23.69,0,0,1,2.56-11.66,17.55,17.55,0,0,1,7.8-7.15A41.83,41.83,0,0,1,195,88.42a162,162,0,0,1,19.32-1H217a16,16,0,0,0-.45-4,5.15,5.15,0,0,0-1.85-2.85,10.19,10.19,0,0,0-4.06-1.7,32.56,32.56,0,0,0-7-.6,34.5,34.5,0,0,0-7.86.85,45.34,45.34,0,0,0-6.65,2,26.21,26.21,0,0,0-3.1,1.4c-1,.53-2,1.07-2.91,1.6l-2,1.2a1,1,0,0,1-.5.4c-.07.07-.12.1-.15.1s-.08,0-.15.1l-.1.1a1.78,1.78,0,0,1-1.4.2,2.91,2.91,0,0,1-1.3-1.3l-5.2-9.71a3.85,3.85,0,0,1-.8-2,2.17,2.17,0,0,1,1.1-1.65l.9-.6a45.88,45.88,0,0,1,10.15-5.35,56.8,56.8,0,0,1,11.06-2.76A62.82,62.82,0,0,1,205.7,62a58.75,58.75,0,0,1,14.76,1.51,19.18,19.18,0,0,1,8.86,4.7,16.63,16.63,0,0,1,4.35,8.25,55.41,55.41,0,0,1,1.15,12.16v23.72a3.69,3.69,0,0,0,.35,1.8,1.71,1.71,0,0,0,1.05.8,7.94,7.94,0,0,0,2.1.2v.1a1.93,1.93,0,0,1,1.25.6,2.74,2.74,0,0,1,.46,1.8Zm-23-28.62h-1.6q-8.91,0-14.11.4a30.74,30.74,0,0,0-8,1.45,6,6,0,0,0-3.6,2.81,10.61,10.61,0,0,0-.8,4.45,8.42,8.42,0,0,0,2.45,6.25c1.63,1.64,4.59,2.46,8.86,2.46q8.81,0,12.81-4t4-11.36Z" transform="translate(-5.5 -21.35)"/><path class="b" d="M305,62.5a2.52,2.52,0,0,1,1.1,2.31V77.72a2.78,2.78,0,0,1-.95,2.1,3.29,3.29,0,0,1-2.35.9h-4.5A30.32,30.32,0,0,0,290,82.17a12.14,12.14,0,0,0-5,3.15,10.66,10.66,0,0,0-2.45,4.91,30.44,30.44,0,0,0-.65,6.7v32.22a2.79,2.79,0,0,1-.95,2.16,3.45,3.45,0,0,1-2.36.85H264.44a3.43,3.43,0,0,1-2.35-.85,2.79,2.79,0,0,1-.95-2.16V64.81a2.86,2.86,0,0,1,.95-2.11,3.29,3.29,0,0,1,2.35-.9h14.11a3.44,3.44,0,0,1,2.4.9,2.78,2.78,0,0,1,1,2.11v4.4a9.29,9.29,0,0,1,3.6-3.6,21.81,21.81,0,0,1,5.3-2.2,34.85,34.85,0,0,1,6-1.11q3.09-.3,5.7-.4h.1l.1-.1A4.13,4.13,0,0,1,305,62.5Z" transform="translate(-5.5 -21.35)"/><path class="b" d="M386,130.81c-.23.56-.82.85-1.75.85H370.12a19.14,19.14,0,0,1-2.65,0,4.59,4.59,0,0,1-1.55-.4,3.19,3.19,0,0,1-1.05-.86q-.45-.54-1.05-1.35L345.3,105.24l-.5.6V129a2.76,2.76,0,0,1-.95,2.15,3.39,3.39,0,0,1-2.35.86H328.59a3.55,3.55,0,0,1-2.4-.86,2.68,2.68,0,0,1-1-2.15V37.69a2.76,2.76,0,0,1,1-2.11,3.44,3.44,0,0,1,2.4-.9H341.5a3.29,3.29,0,0,1,2.35.9,2.84,2.84,0,0,1,.95,2.11V80.92l.8-.9,16.81-16.31a6.09,6.09,0,0,1,3-2.11,18.82,18.82,0,0,1,3.85-.3h13.41c.93,0,1.52.3,1.75.9a2.21,2.21,0,0,1-.55,2.11L359.31,91.63l26.22,37A2.42,2.42,0,0,1,386,130.81Z" transform="translate(-5.5 -21.35)"/><path class="c" d="M9.26,168.06a4.77,4.77,0,0,0,1.9,1.88,5.57,5.57,0,0,0,2.65.62,5.2,5.2,0,0,0,1.74-.28,4.35,4.35,0,0,0,1.42-.79,3.82,3.82,0,0,0,1-1.22,3.7,3.7,0,0,0,.35-1.62,3.1,3.1,0,0,0-.44-1.71,3.53,3.53,0,0,0-1.16-1.11,8.32,8.32,0,0,0-1.65-.74c-.6-.21-1.23-.42-1.88-.62s-1.27-.44-1.88-.7a6.41,6.41,0,0,1-1.64-1,4.51,4.51,0,0,1-1.17-1.59A5.65,5.65,0,0,1,8,156.79a5.17,5.17,0,0,1,.52-2.34A5,5,0,0,1,10,152.73a6.34,6.34,0,0,1,2-1,8.31,8.31,0,0,1,2.41-.35,7.7,7.7,0,0,1,3,.58,5.64,5.64,0,0,1,2.4,1.92L18.22,155a4.75,4.75,0,0,0-1.64-1.47,4.73,4.73,0,0,0-2.23-.49,6.11,6.11,0,0,0-1.72.24,4.38,4.38,0,0,0-1.42.7,3.39,3.39,0,0,0-1.33,2.82,3.17,3.17,0,0,0,.76,2.29,5.29,5.29,0,0,0,1.89,1.27,19.5,19.5,0,0,0,2.48.81,12.52,12.52,0,0,1,2.47.94,5.26,5.26,0,0,1,1.89,1.65,4.85,4.85,0,0,1,.76,2.9,5.49,5.49,0,0,1-.5,2.39,5.27,5.27,0,0,1-1.37,1.76,5.94,5.94,0,0,1-2,1.08,7.57,7.57,0,0,1-2.33.36,9.3,9.3,0,0,1-3.62-.68,6.69,6.69,0,0,1-2.84-2.32Z" transform="translate(-5.5 -21.35)"/><path class="c" d="M36.57,166.29c0,.64,0,1.21,0,1.71s0,1,0,1.41.05.83.07,1.2.07.75.13,1.13H35.25a12.44,12.44,0,0,1-.17-2.11H35a4.77,4.77,0,0,1-1.81,1.86,5.7,5.7,0,0,1-2.74.59,6.26,6.26,0,0,1-1.66-.22,4.15,4.15,0,0,1-1.46-.67A3.65,3.65,0,0,1,26.3,170a3.62,3.62,0,0,1-.41-1.77,3.43,3.43,0,0,1,.76-2.36,4.77,4.77,0,0,1,1.87-1.31,8.75,8.75,0,0,1,2.36-.56,20.66,20.66,0,0,1,2.2-.13h2v-.78a2.76,2.76,0,0,0-1-2.42,4.4,4.4,0,0,0-2.61-.73,5.93,5.93,0,0,0-4,1.46l-1-1.15a5.9,5.9,0,0,1,2.31-1.36,8.27,8.27,0,0,1,2.64-.47,5.89,5.89,0,0,1,3.76,1.11,4.29,4.29,0,0,1,1.41,3.58Zm-3.37-1.07a15.41,15.41,0,0,0-2.07.14,7.41,7.41,0,0,0-1.8.48,3.18,3.18,0,0,0-1.27.9,2.07,2.07,0,0,0-.48,1.4,2.16,2.16,0,0,0,.26,1.06,2.26,2.26,0,0,0,.69.75,3.14,3.14,0,0,0,.94.45,3.49,3.49,0,0,0,1.06.16,5.45,5.45,0,0,0,2.22-.39,3.92,3.92,0,0,0,1.39-1,3.63,3.63,0,0,0,.71-1.43,6.36,6.36,0,0,0,.2-1.62v-.87Z" transform="translate(-5.5 -21.35)"/><path class="c" d="M43.68,162.41c0-.24,0-.54,0-.88s0-.7,0-1.06,0-.69,0-1,0-.55,0-.72h1.69c0,.49,0,1,0,1.4a5.16,5.16,0,0,0,.07.87h.09a4.57,4.57,0,0,1,1.68-1.84,5,5,0,0,1,2.76-.77,4.42,4.42,0,0,1,2.36.66,3.76,3.76,0,0,1,1.54,2.15,4.23,4.23,0,0,1,1.84-2.13,5.26,5.26,0,0,1,2.57-.68,5.49,5.49,0,0,1,2.47.48,4.08,4.08,0,0,1,1.51,1.25,4.83,4.83,0,0,1,.76,1.78,10.26,10.26,0,0,1,.21,2.08v7.73H61.43V164.1a8.45,8.45,0,0,0-.14-1.53,4.12,4.12,0,0,0-.49-1.34,2.61,2.61,0,0,0-1-.94,3.45,3.45,0,0,0-1.65-.35,3.9,3.9,0,0,0-1.94.43A3.54,3.54,0,0,0,55,161.48a4.55,4.55,0,0,0-.62,1.47,6.63,6.63,0,0,0-.18,1.48v7.31H52.55v-7.81a5.61,5.61,0,0,0-.66-2.9,2.21,2.21,0,0,0-2-1.09,4.91,4.91,0,0,0-1.76.32,3.84,3.84,0,0,0-1.43,1,4.76,4.76,0,0,0-1,1.65,7.22,7.22,0,0,0-.35,2.35v6.49H43.68Z" transform="translate(-5.5 -21.35)"/><path class="c" d="M81.15,168.06a4.77,4.77,0,0,0,1.9,1.88,5.6,5.6,0,0,0,2.65.62,5.2,5.2,0,0,0,1.74-.28,4.35,4.35,0,0,0,1.42-.79,3.57,3.57,0,0,0,1.31-2.84,3.1,3.1,0,0,0-.44-1.71,3.43,3.43,0,0,0-1.16-1.11,8.5,8.5,0,0,0-1.64-.74c-.61-.21-1.24-.42-1.89-.62s-1.27-.44-1.88-.7a6.41,6.41,0,0,1-1.64-1,4.51,4.51,0,0,1-1.17-1.59,5.66,5.66,0,0,1-.43-2.36,5,5,0,0,1,.52-2.34,4.9,4.9,0,0,1,1.4-1.72,6.34,6.34,0,0,1,2-1,8.31,8.31,0,0,1,2.41-.35,7.67,7.67,0,0,1,3,.58,5.73,5.73,0,0,1,2.41,1.92L90.11,155a4.66,4.66,0,0,0-1.64-1.47,4.73,4.73,0,0,0-2.23-.49,6.11,6.11,0,0,0-1.72.24,4.38,4.38,0,0,0-1.42.7,3.47,3.47,0,0,0-1.33,2.82,3.17,3.17,0,0,0,.76,2.29,5.29,5.29,0,0,0,1.89,1.27,19.5,19.5,0,0,0,2.48.81,12.52,12.52,0,0,1,2.47.94,5.38,5.38,0,0,1,1.9,1.65,4.92,4.92,0,0,1,.75,2.9,5.21,5.21,0,0,1-1.86,4.15,6.14,6.14,0,0,1-2,1.08,7.63,7.63,0,0,1-2.34.36,9.3,9.3,0,0,1-3.62-.68,6.69,6.69,0,0,1-2.84-2.32Z" transform="translate(-5.5 -21.35)"/><path class="c" d="M104.72,160.28H101v8.45a1.83,1.83,0,0,0,.48,1.35,1.78,1.78,0,0,0,1.32.48,3.65,3.65,0,0,0,1-.13,5.78,5.78,0,0,0,.94-.32l.14,1.52a9.85,9.85,0,0,1-1.09.3,4.72,4.72,0,0,1-1.1.15,4,4,0,0,1-1.54-.27,2.76,2.76,0,0,1-1-.72,2.7,2.7,0,0,1-.58-1.05,4.56,4.56,0,0,1-.18-1.31v-8.45H96.52v-1.52h2.81V155H101v3.74h3.71Z" transform="translate(-5.5 -21.35)"/><path class="c" d="M120.43,166.29c0,.64,0,1.21,0,1.71s0,1,0,1.41,0,.83.07,1.2.07.75.13,1.13h-1.57a11.49,11.49,0,0,1-.17-2.11h-.06a4.84,4.84,0,0,1-1.81,1.86,5.7,5.7,0,0,1-2.74.59,6.26,6.26,0,0,1-1.66-.22,4.15,4.15,0,0,1-1.46-.67,3.65,3.65,0,0,1-1-1.19,3.62,3.62,0,0,1-.41-1.77,3.43,3.43,0,0,1,.76-2.36,4.77,4.77,0,0,1,1.87-1.31,8.66,8.66,0,0,1,2.36-.56,20.66,20.66,0,0,1,2.2-.13h2v-.78a2.76,2.76,0,0,0-1-2.42,4.4,4.4,0,0,0-2.61-.73,5.93,5.93,0,0,0-4,1.46l-1-1.15a5.9,5.9,0,0,1,2.31-1.36,8.18,8.18,0,0,1,2.64-.47,5.89,5.89,0,0,1,3.76,1.11,4.29,4.29,0,0,1,1.41,3.58Zm-3.37-1.07a15.41,15.41,0,0,0-2.07.14,7.41,7.41,0,0,0-1.8.48,3.29,3.29,0,0,0-1.28.9,2.11,2.11,0,0,0-.47,1.4,2.16,2.16,0,0,0,.26,1.06,2.26,2.26,0,0,0,.69.75,3.14,3.14,0,0,0,.94.45,3.49,3.49,0,0,0,1.06.16,5.45,5.45,0,0,0,2.22-.39,3.92,3.92,0,0,0,1.39-1,3.63,3.63,0,0,0,.71-1.43,6.84,6.84,0,0,0,.2-1.62v-.87Z" transform="translate(-5.5 -21.35)"/><path class="c" d="M127.53,162.41c0-.24,0-.54,0-.88s0-.7-.05-1.06,0-.69,0-1,0-.55,0-.72h1.69c0,.49,0,1,0,1.4a4.24,4.24,0,0,0,.07.87,5.91,5.91,0,0,1,1.66-1.88,4.15,4.15,0,0,1,2.47-.73,3.89,3.89,0,0,1,.49,0l.5.1-.2,1.66a2.22,2.22,0,0,0-.65-.11,4.72,4.72,0,0,0-1.89.35,3.44,3.44,0,0,0-1.32,1,4,4,0,0,0-.78,1.45,6,6,0,0,0-.25,1.78v7.08h-1.69Z" transform="translate(-5.5 -21.35)"/><path class="c" d="M139.5,150.5h1.69v14.16l6.4-5.87h2.48l-6.69,5.93,7.47,7H148.3l-7.11-6.86v6.86H139.5Z" transform="translate(-5.5 -21.35)"/><path class="c" d="M163.44,151.85h1.91l4.94,17.61h.06l5-17.61h2.36l5,17.61h0l5-17.61h1.91l-5.79,19.89h-2.28l-5-17.7h-.06l-5,17.7h-2.28Z" transform="translate(-5.5 -21.35)"/><path class="c" d="M205.63,169.29a5.58,5.58,0,0,1-2.43,2.14,7.69,7.69,0,0,1-3.18.65,6.84,6.84,0,0,1-2.7-.51,6.06,6.06,0,0,1-2.08-1.42,6.13,6.13,0,0,1-1.33-2.16,7.93,7.93,0,0,1-.47-2.77,7.44,7.44,0,0,1,.48-2.7,6.53,6.53,0,0,1,1.35-2.15,6.46,6.46,0,0,1,2-1.43,6.54,6.54,0,0,1,2.61-.52,6.39,6.39,0,0,1,2.63.52,5.7,5.7,0,0,1,3.07,3.33,6.35,6.35,0,0,1,.4,2.22v1.18h-10.9a5.72,5.72,0,0,0,.21,1.36,4.9,4.9,0,0,0,.77,1.62,5.17,5.17,0,0,0,1.5,1.35,4.75,4.75,0,0,0,2.43.56,5.41,5.41,0,0,0,2.5-.62,4.47,4.47,0,0,0,1.86-1.68Zm-1.29-5.14a3.91,3.91,0,0,0-.35-1.63,4.32,4.32,0,0,0-1-1.33,4.53,4.53,0,0,0-1.44-.91,4.47,4.47,0,0,0-1.75-.34,4.34,4.34,0,0,0-2.29.56,5.25,5.25,0,0,0-1.45,1.29,5.07,5.07,0,0,0-.76,1.42,3.67,3.67,0,0,0-.22.94Z" transform="translate(-5.5 -21.35)"/><path class="c" d="M212,150.5h1.69V161h.05a4.55,4.55,0,0,1,1-1.16,6.19,6.19,0,0,1,1.28-.82,6.47,6.47,0,0,1,1.45-.47,6.93,6.93,0,0,1,1.49-.16,7.22,7.22,0,0,1,2.74.51,6.38,6.38,0,0,1,3.58,3.58,7.62,7.62,0,0,1,0,5.48,6.38,6.38,0,0,1-3.58,3.58,7.22,7.22,0,0,1-2.74.51,7.63,7.63,0,0,1-1.49-.16,6,6,0,0,1-1.45-.48,5.75,5.75,0,0,1-1.28-.81,4.43,4.43,0,0,1-1-1.17h-.05v2.28H212Zm1.52,14.75a5.09,5.09,0,0,0,.42,2.06,5.22,5.22,0,0,0,1.15,1.69,5.57,5.57,0,0,0,1.71,1.14,5.41,5.41,0,0,0,2.14.42,5.19,5.19,0,0,0,2.13-.42,4.84,4.84,0,0,0,2.66-2.83,6.06,6.06,0,0,0,.35-2.06,6.16,6.16,0,0,0-.35-2.07,5,5,0,0,0-1-1.68,4.88,4.88,0,0,0-1.63-1.14,5.19,5.19,0,0,0-2.13-.42,5.41,5.41,0,0,0-2.14.42,5.57,5.57,0,0,0-1.71,1.14,5.29,5.29,0,0,0-1.15,1.68A5.18,5.18,0,0,0,213.56,165.25Z" transform="translate(-5.5 -21.35)"/><path class="c" d="M242.32,151.85h6.16a13.34,13.34,0,0,1,4.38.63,9.65,9.65,0,0,1,3,1.62,7.94,7.94,0,0,1,1.88,2.17,10.43,10.43,0,0,1,1,2.29,9.86,9.86,0,0,1,.41,2c.06.59.09,1,.09,1.25s0,.66-.09,1.25a9.86,9.86,0,0,1-.41,2,10.23,10.23,0,0,1-1,2.29,7.83,7.83,0,0,1-1.88,2.18,9.86,9.86,0,0,1-3,1.62,13.34,13.34,0,0,1-4.38.63h-6.16Zm1.86,18.2H248a13.2,13.2,0,0,0,3.68-.49,8.62,8.62,0,0,0,3-1.5,7.18,7.18,0,0,0,2-2.57,9.72,9.72,0,0,0,0-7.39,7.09,7.09,0,0,0-2-2.57,8.29,8.29,0,0,0-3-1.5,13.2,13.2,0,0,0-3.68-.5h-3.82Z" transform="translate(-5.5 -21.35)"/><path class="c" d="M277,169.29a5.58,5.58,0,0,1-2.43,2.14,7.74,7.74,0,0,1-3.19.65,6.83,6.83,0,0,1-2.69-.51,6.06,6.06,0,0,1-2.08-1.42,6.3,6.3,0,0,1-1.34-2.16,7.93,7.93,0,0,1-.46-2.77,7.44,7.44,0,0,1,.48-2.7,6.35,6.35,0,0,1,1.34-2.15,6.62,6.62,0,0,1,2.06-1.43,6.47,6.47,0,0,1,2.61-.52,6.39,6.39,0,0,1,2.63.52,6,6,0,0,1,1.91,1.38,5.84,5.84,0,0,1,1.16,2,6.59,6.59,0,0,1,.4,2.22v1.18h-10.9a5.25,5.25,0,0,0,.21,1.36,4.71,4.71,0,0,0,.77,1.62A4.93,4.93,0,0,0,269,170a4.75,4.75,0,0,0,2.43.56,5.44,5.44,0,0,0,2.5-.62,4.47,4.47,0,0,0,1.86-1.68Zm-1.29-5.14a3.91,3.91,0,0,0-.35-1.63,4.35,4.35,0,0,0-1-1.33,4.67,4.67,0,0,0-3.19-1.25,4.36,4.36,0,0,0-2.29.56,5.2,5.2,0,0,0-1.44,1.29,5.07,5.07,0,0,0-.76,1.42,3.67,3.67,0,0,0-.22.94Z" transform="translate(-5.5 -21.35)"/><path class="c" d="M281.94,158.76h1.91l4.32,11.15,4.22-11.15h1.71l-5.11,13h-1.74Z" transform="translate(-5.5 -21.35)"/><path class="c" d="M310.84,169.29a5.58,5.58,0,0,1-2.43,2.14,7.69,7.69,0,0,1-3.18.65,6.84,6.84,0,0,1-2.7-.51,6.06,6.06,0,0,1-2.08-1.42,6.13,6.13,0,0,1-1.33-2.16,7.93,7.93,0,0,1-.47-2.77,7.44,7.44,0,0,1,.48-2.7,6.53,6.53,0,0,1,1.35-2.15,6.46,6.46,0,0,1,2-1.43,6.54,6.54,0,0,1,2.61-.52,6.39,6.39,0,0,1,2.63.52,5.7,5.7,0,0,1,3.07,3.33,6.35,6.35,0,0,1,.4,2.22v1.18h-10.9a5.72,5.72,0,0,0,.21,1.36,4.9,4.9,0,0,0,.77,1.62,5.17,5.17,0,0,0,1.5,1.35,4.75,4.75,0,0,0,2.43.56,5.41,5.41,0,0,0,2.5-.62,4.47,4.47,0,0,0,1.86-1.68Zm-1.29-5.14a3.91,3.91,0,0,0-.35-1.63,4.32,4.32,0,0,0-.95-1.33,4.72,4.72,0,0,0-3.19-1.25,4.34,4.34,0,0,0-2.29.56,5.25,5.25,0,0,0-1.45,1.29,5.07,5.07,0,0,0-.76,1.42,3.67,3.67,0,0,0-.22.94Z" transform="translate(-5.5 -21.35)"/><path class="c" d="M317.9,150.5h1.68v21.24H317.9Z" transform="translate(-5.5 -21.35)"/><path class="c" d="M326.24,165.25a7.38,7.38,0,0,1,.5-2.74,6.62,6.62,0,0,1,1.41-2.16,6.3,6.3,0,0,1,2.16-1.42,7.33,7.33,0,0,1,2.76-.51,7.22,7.22,0,0,1,2.74.51,6.38,6.38,0,0,1,3.58,3.58,7.76,7.76,0,0,1,0,5.48,6.38,6.38,0,0,1-3.58,3.58,7.22,7.22,0,0,1-2.74.51,7.33,7.33,0,0,1-2.76-.51,6.3,6.3,0,0,1-2.16-1.42,6.62,6.62,0,0,1-1.41-2.16A7.42,7.42,0,0,1,326.24,165.25Zm1.69,0a5.83,5.83,0,0,0,.35,2.06,4.75,4.75,0,0,0,1,1.69,4.88,4.88,0,0,0,1.63,1.14,5.64,5.64,0,0,0,4.27,0,4.84,4.84,0,0,0,2.66-2.83,6.06,6.06,0,0,0,.35-2.06,6.16,6.16,0,0,0-.35-2.07,5,5,0,0,0-1-1.68,4.88,4.88,0,0,0-1.63-1.14,5.64,5.64,0,0,0-4.27,0,4.88,4.88,0,0,0-1.63,1.14,4.8,4.8,0,0,0-1,1.68A5.92,5.92,0,0,0,327.93,165.25Z" transform="translate(-5.5 -21.35)"/><path class="c" d="M345.9,158.76h1.69V161h.06a4.55,4.55,0,0,1,1-1.16,5.93,5.93,0,0,1,1.28-.82,6.56,6.56,0,0,1,1.44-.47,7.07,7.07,0,0,1,1.49-.16,7.15,7.15,0,0,1,2.74.51,6.31,6.31,0,0,1,3.58,3.58,7.62,7.62,0,0,1,0,5.48,6.31,6.31,0,0,1-3.58,3.58,7.15,7.15,0,0,1-2.74.51,7.79,7.79,0,0,1-1.49-.16,6.1,6.1,0,0,1-1.44-.48,5.53,5.53,0,0,1-1.28-.81,4.43,4.43,0,0,1-1-1.17h-.06v8.68H345.9Zm1.52,6.49a5.09,5.09,0,0,0,.42,2.06A5.39,5.39,0,0,0,349,169a5.49,5.49,0,0,0,1.72,1.14,5.36,5.36,0,0,0,2.13.42,5.27,5.27,0,0,0,2.14-.42,4.88,4.88,0,0,0,1.63-1.14,4.75,4.75,0,0,0,1-1.69,5.83,5.83,0,0,0,.36-2.06,5.93,5.93,0,0,0-.36-2.07,4.8,4.8,0,0,0-1-1.68,4.88,4.88,0,0,0-1.63-1.14,5.27,5.27,0,0,0-2.14-.42,5.36,5.36,0,0,0-2.13.42,5.35,5.35,0,0,0-2.87,2.82A5.18,5.18,0,0,0,347.42,165.25Z" transform="translate(-5.5 -21.35)"/><path class="c" d="M377.51,169.29a5.69,5.69,0,0,1-2.43,2.14,7.74,7.74,0,0,1-3.19.65,6.91,6.91,0,0,1-2.7-.51,6.14,6.14,0,0,1-3.41-3.58,7.93,7.93,0,0,1-.46-2.77,7.44,7.44,0,0,1,.48-2.7,6.35,6.35,0,0,1,1.34-2.15,6.3,6.3,0,0,1,4.67-2,6.31,6.31,0,0,1,2.62.52,5.76,5.76,0,0,1,3.08,3.33,6.57,6.57,0,0,1,.39,2.22v1.18H367a5.72,5.72,0,0,0,.21,1.36,4.74,4.74,0,0,0,.78,1.62,4.93,4.93,0,0,0,1.5,1.35,4.75,4.75,0,0,0,2.43.56,5.47,5.47,0,0,0,2.5-.62,4.45,4.45,0,0,0,1.85-1.68Zm-1.29-5.14a3.91,3.91,0,0,0-.35-1.63,4.58,4.58,0,0,0-4.15-2.58,4.36,4.36,0,0,0-2.29.56,5.2,5.2,0,0,0-1.44,1.29,5.07,5.07,0,0,0-.76,1.42,3.84,3.84,0,0,0-.23.94Z" transform="translate(-5.5 -21.35)"/><path class="c" d="M384.28,162.41c0-.24,0-.54,0-.88s0-.7,0-1.06,0-.69,0-1,0-.55,0-.72h1.69c0,.49,0,1,0,1.4a4.24,4.24,0,0,0,.07.87,5.79,5.79,0,0,1,1.66-1.88,4.13,4.13,0,0,1,2.47-.73,3.89,3.89,0,0,1,.49,0l.49.1-.2,1.66a2.15,2.15,0,0,0-.64-.11,4.81,4.81,0,0,0-1.9.35,3.6,3.6,0,0,0-1.32,1,4,4,0,0,0-.77,1.45,6,6,0,0,0-.25,1.78v7.08h-1.69Z" transform="translate(-5.5 -21.35)"/></svg>